%TF.GenerationSoftware,KiCad,Pcbnew,8.0.4*%
%TF.CreationDate,2024-08-07T10:54:24+02:00*%
%TF.ProjectId,DCJ11_Carrier,44434a31-315f-4436-9172-726965722e6b,rev?*%
%TF.SameCoordinates,Original*%
%TF.FileFunction,Legend,Bot*%
%TF.FilePolarity,Positive*%
%FSLAX46Y46*%
G04 Gerber Fmt 4.6, Leading zero omitted, Abs format (unit mm)*
G04 Created by KiCad (PCBNEW 8.0.4) date 2024-08-07 10:54:24*
%MOMM*%
%LPD*%
G01*
G04 APERTURE LIST*
G04 Aperture macros list*
%AMRoundRect*
0 Rectangle with rounded corners*
0 $1 Rounding radius*
0 $2 $3 $4 $5 $6 $7 $8 $9 X,Y pos of 4 corners*
0 Add a 4 corners polygon primitive as box body*
4,1,4,$2,$3,$4,$5,$6,$7,$8,$9,$2,$3,0*
0 Add four circle primitives for the rounded corners*
1,1,$1+$1,$2,$3*
1,1,$1+$1,$4,$5*
1,1,$1+$1,$6,$7*
1,1,$1+$1,$8,$9*
0 Add four rect primitives between the rounded corners*
20,1,$1+$1,$2,$3,$4,$5,0*
20,1,$1+$1,$4,$5,$6,$7,0*
20,1,$1+$1,$6,$7,$8,$9,0*
20,1,$1+$1,$8,$9,$2,$3,0*%
G04 Aperture macros list end*
%ADD10C,0.150000*%
%ADD11C,0.375000*%
%ADD12C,0.120000*%
%ADD13RoundRect,0.250000X0.900000X-1.000000X0.900000X1.000000X-0.900000X1.000000X-0.900000X-1.000000X0*%
%ADD14RoundRect,0.250000X0.350000X0.450000X-0.350000X0.450000X-0.350000X-0.450000X0.350000X-0.450000X0*%
%ADD15RoundRect,0.250000X-0.350000X-0.450000X0.350000X-0.450000X0.350000X0.450000X-0.350000X0.450000X0*%
%ADD16R,1.700000X1.700000*%
%ADD17R,2.200000X1.800000*%
G04 APERTURE END LIST*
D10*
X138124247Y-65832017D02*
X139014723Y-65832017D01*
X139014723Y-65832017D02*
X139119485Y-65779636D01*
X139119485Y-65779636D02*
X139171866Y-65727255D01*
X139171866Y-65727255D02*
X139224247Y-65622493D01*
X139224247Y-65622493D02*
X139224247Y-65465350D01*
X139224247Y-65465350D02*
X139171866Y-65360588D01*
X138805200Y-65832017D02*
X138857580Y-65727255D01*
X138857580Y-65727255D02*
X138857580Y-65517731D01*
X138857580Y-65517731D02*
X138805200Y-65412969D01*
X138805200Y-65412969D02*
X138752819Y-65360588D01*
X138752819Y-65360588D02*
X138648057Y-65308207D01*
X138648057Y-65308207D02*
X138333771Y-65308207D01*
X138333771Y-65308207D02*
X138229009Y-65360588D01*
X138229009Y-65360588D02*
X138176628Y-65412969D01*
X138176628Y-65412969D02*
X138124247Y-65517731D01*
X138124247Y-65517731D02*
X138124247Y-65727255D01*
X138124247Y-65727255D02*
X138176628Y-65832017D01*
X138857580Y-66355826D02*
X138124247Y-66355826D01*
X137757580Y-66355826D02*
X137809961Y-66303445D01*
X137809961Y-66303445D02*
X137862342Y-66355826D01*
X137862342Y-66355826D02*
X137809961Y-66408207D01*
X137809961Y-66408207D02*
X137757580Y-66355826D01*
X137757580Y-66355826D02*
X137862342Y-66355826D01*
X138124247Y-66722493D02*
X138124247Y-67141541D01*
X137757580Y-66879636D02*
X138700438Y-66879636D01*
X138700438Y-66879636D02*
X138805200Y-66932017D01*
X138805200Y-66932017D02*
X138857580Y-67036779D01*
X138857580Y-67036779D02*
X138857580Y-67141541D01*
X138857580Y-67508207D02*
X137757580Y-67508207D01*
X138857580Y-67979636D02*
X138281390Y-67979636D01*
X138281390Y-67979636D02*
X138176628Y-67927255D01*
X138176628Y-67927255D02*
X138124247Y-67822493D01*
X138124247Y-67822493D02*
X138124247Y-67665350D01*
X138124247Y-67665350D02*
X138176628Y-67560588D01*
X138176628Y-67560588D02*
X138229009Y-67508207D01*
X138124247Y-68974874D02*
X138857580Y-68974874D01*
X138124247Y-68503445D02*
X138700438Y-68503445D01*
X138700438Y-68503445D02*
X138805200Y-68555826D01*
X138805200Y-68555826D02*
X138857580Y-68660588D01*
X138857580Y-68660588D02*
X138857580Y-68817731D01*
X138857580Y-68817731D02*
X138805200Y-68922493D01*
X138805200Y-68922493D02*
X138752819Y-68974874D01*
X138857580Y-69498683D02*
X137757580Y-69498683D01*
X138176628Y-69498683D02*
X138124247Y-69603445D01*
X138124247Y-69603445D02*
X138124247Y-69812969D01*
X138124247Y-69812969D02*
X138176628Y-69917731D01*
X138176628Y-69917731D02*
X138229009Y-69970112D01*
X138229009Y-69970112D02*
X138333771Y-70022493D01*
X138333771Y-70022493D02*
X138648057Y-70022493D01*
X138648057Y-70022493D02*
X138752819Y-69970112D01*
X138752819Y-69970112D02*
X138805200Y-69917731D01*
X138805200Y-69917731D02*
X138857580Y-69812969D01*
X138857580Y-69812969D02*
X138857580Y-69603445D01*
X138857580Y-69603445D02*
X138805200Y-69498683D01*
X138752819Y-70493921D02*
X138805200Y-70546302D01*
X138805200Y-70546302D02*
X138857580Y-70493921D01*
X138857580Y-70493921D02*
X138805200Y-70441540D01*
X138805200Y-70441540D02*
X138752819Y-70493921D01*
X138752819Y-70493921D02*
X138857580Y-70493921D01*
X138805200Y-71489160D02*
X138857580Y-71384398D01*
X138857580Y-71384398D02*
X138857580Y-71174874D01*
X138857580Y-71174874D02*
X138805200Y-71070112D01*
X138805200Y-71070112D02*
X138752819Y-71017731D01*
X138752819Y-71017731D02*
X138648057Y-70965350D01*
X138648057Y-70965350D02*
X138333771Y-70965350D01*
X138333771Y-70965350D02*
X138229009Y-71017731D01*
X138229009Y-71017731D02*
X138176628Y-71070112D01*
X138176628Y-71070112D02*
X138124247Y-71174874D01*
X138124247Y-71174874D02*
X138124247Y-71384398D01*
X138124247Y-71384398D02*
X138176628Y-71489160D01*
X138857580Y-72117731D02*
X138805200Y-72012969D01*
X138805200Y-72012969D02*
X138752819Y-71960588D01*
X138752819Y-71960588D02*
X138648057Y-71908207D01*
X138648057Y-71908207D02*
X138333771Y-71908207D01*
X138333771Y-71908207D02*
X138229009Y-71960588D01*
X138229009Y-71960588D02*
X138176628Y-72012969D01*
X138176628Y-72012969D02*
X138124247Y-72117731D01*
X138124247Y-72117731D02*
X138124247Y-72274874D01*
X138124247Y-72274874D02*
X138176628Y-72379636D01*
X138176628Y-72379636D02*
X138229009Y-72432017D01*
X138229009Y-72432017D02*
X138333771Y-72484398D01*
X138333771Y-72484398D02*
X138648057Y-72484398D01*
X138648057Y-72484398D02*
X138752819Y-72432017D01*
X138752819Y-72432017D02*
X138805200Y-72379636D01*
X138805200Y-72379636D02*
X138857580Y-72274874D01*
X138857580Y-72274874D02*
X138857580Y-72117731D01*
X138857580Y-72955826D02*
X138124247Y-72955826D01*
X138229009Y-72955826D02*
X138176628Y-73008207D01*
X138176628Y-73008207D02*
X138124247Y-73112969D01*
X138124247Y-73112969D02*
X138124247Y-73270112D01*
X138124247Y-73270112D02*
X138176628Y-73374874D01*
X138176628Y-73374874D02*
X138281390Y-73427255D01*
X138281390Y-73427255D02*
X138857580Y-73427255D01*
X138281390Y-73427255D02*
X138176628Y-73479636D01*
X138176628Y-73479636D02*
X138124247Y-73584398D01*
X138124247Y-73584398D02*
X138124247Y-73741541D01*
X138124247Y-73741541D02*
X138176628Y-73846302D01*
X138176628Y-73846302D02*
X138281390Y-73898683D01*
X138281390Y-73898683D02*
X138857580Y-73898683D01*
X137705200Y-75208208D02*
X139119485Y-74265350D01*
X138857580Y-75574874D02*
X138124247Y-75574874D01*
X138229009Y-75574874D02*
X138176628Y-75627255D01*
X138176628Y-75627255D02*
X138124247Y-75732017D01*
X138124247Y-75732017D02*
X138124247Y-75889160D01*
X138124247Y-75889160D02*
X138176628Y-75993922D01*
X138176628Y-75993922D02*
X138281390Y-76046303D01*
X138281390Y-76046303D02*
X138857580Y-76046303D01*
X138281390Y-76046303D02*
X138176628Y-76098684D01*
X138176628Y-76098684D02*
X138124247Y-76203446D01*
X138124247Y-76203446D02*
X138124247Y-76360589D01*
X138124247Y-76360589D02*
X138176628Y-76465350D01*
X138176628Y-76465350D02*
X138281390Y-76517731D01*
X138281390Y-76517731D02*
X138857580Y-76517731D01*
X138805200Y-77460589D02*
X138857580Y-77355827D01*
X138857580Y-77355827D02*
X138857580Y-77146303D01*
X138857580Y-77146303D02*
X138805200Y-77041541D01*
X138805200Y-77041541D02*
X138700438Y-76989160D01*
X138700438Y-76989160D02*
X138281390Y-76989160D01*
X138281390Y-76989160D02*
X138176628Y-77041541D01*
X138176628Y-77041541D02*
X138124247Y-77146303D01*
X138124247Y-77146303D02*
X138124247Y-77355827D01*
X138124247Y-77355827D02*
X138176628Y-77460589D01*
X138176628Y-77460589D02*
X138281390Y-77512970D01*
X138281390Y-77512970D02*
X138386152Y-77512970D01*
X138386152Y-77512970D02*
X138490914Y-76989160D01*
X138124247Y-77984398D02*
X138857580Y-77984398D01*
X138229009Y-77984398D02*
X138176628Y-78036779D01*
X138176628Y-78036779D02*
X138124247Y-78141541D01*
X138124247Y-78141541D02*
X138124247Y-78298684D01*
X138124247Y-78298684D02*
X138176628Y-78403446D01*
X138176628Y-78403446D02*
X138281390Y-78455827D01*
X138281390Y-78455827D02*
X138857580Y-78455827D01*
X138124247Y-79451065D02*
X139014723Y-79451065D01*
X139014723Y-79451065D02*
X139119485Y-79398684D01*
X139119485Y-79398684D02*
X139171866Y-79346303D01*
X139171866Y-79346303D02*
X139224247Y-79241541D01*
X139224247Y-79241541D02*
X139224247Y-79084398D01*
X139224247Y-79084398D02*
X139171866Y-78979636D01*
X138805200Y-79451065D02*
X138857580Y-79346303D01*
X138857580Y-79346303D02*
X138857580Y-79136779D01*
X138857580Y-79136779D02*
X138805200Y-79032017D01*
X138805200Y-79032017D02*
X138752819Y-78979636D01*
X138752819Y-78979636D02*
X138648057Y-78927255D01*
X138648057Y-78927255D02*
X138333771Y-78927255D01*
X138333771Y-78927255D02*
X138229009Y-78979636D01*
X138229009Y-78979636D02*
X138176628Y-79032017D01*
X138176628Y-79032017D02*
X138124247Y-79136779D01*
X138124247Y-79136779D02*
X138124247Y-79346303D01*
X138124247Y-79346303D02*
X138176628Y-79451065D01*
X138805200Y-79922493D02*
X138857580Y-80027255D01*
X138857580Y-80027255D02*
X138857580Y-80236779D01*
X138857580Y-80236779D02*
X138805200Y-80341541D01*
X138805200Y-80341541D02*
X138700438Y-80393922D01*
X138700438Y-80393922D02*
X138648057Y-80393922D01*
X138648057Y-80393922D02*
X138543295Y-80341541D01*
X138543295Y-80341541D02*
X138490914Y-80236779D01*
X138490914Y-80236779D02*
X138490914Y-80079636D01*
X138490914Y-80079636D02*
X138438533Y-79974874D01*
X138438533Y-79974874D02*
X138333771Y-79922493D01*
X138333771Y-79922493D02*
X138281390Y-79922493D01*
X138281390Y-79922493D02*
X138176628Y-79974874D01*
X138176628Y-79974874D02*
X138124247Y-80079636D01*
X138124247Y-80079636D02*
X138124247Y-80236779D01*
X138124247Y-80236779D02*
X138176628Y-80341541D01*
X138124247Y-80708207D02*
X138124247Y-81127255D01*
X137757580Y-80865350D02*
X138700438Y-80865350D01*
X138700438Y-80865350D02*
X138805200Y-80917731D01*
X138805200Y-80917731D02*
X138857580Y-81022493D01*
X138857580Y-81022493D02*
X138857580Y-81127255D01*
X138857580Y-81493921D02*
X138124247Y-81493921D01*
X138333771Y-81493921D02*
X138229009Y-81546302D01*
X138229009Y-81546302D02*
X138176628Y-81598683D01*
X138176628Y-81598683D02*
X138124247Y-81703445D01*
X138124247Y-81703445D02*
X138124247Y-81808207D01*
X137705200Y-82960588D02*
X139119485Y-82017730D01*
X138857580Y-83327254D02*
X137757580Y-83327254D01*
X137757580Y-83327254D02*
X137757580Y-83589159D01*
X137757580Y-83589159D02*
X137809961Y-83746302D01*
X137809961Y-83746302D02*
X137914723Y-83851064D01*
X137914723Y-83851064D02*
X138019485Y-83903445D01*
X138019485Y-83903445D02*
X138229009Y-83955826D01*
X138229009Y-83955826D02*
X138386152Y-83955826D01*
X138386152Y-83955826D02*
X138595676Y-83903445D01*
X138595676Y-83903445D02*
X138700438Y-83851064D01*
X138700438Y-83851064D02*
X138805200Y-83746302D01*
X138805200Y-83746302D02*
X138857580Y-83589159D01*
X138857580Y-83589159D02*
X138857580Y-83327254D01*
X138752819Y-85055826D02*
X138805200Y-85003445D01*
X138805200Y-85003445D02*
X138857580Y-84846302D01*
X138857580Y-84846302D02*
X138857580Y-84741540D01*
X138857580Y-84741540D02*
X138805200Y-84584397D01*
X138805200Y-84584397D02*
X138700438Y-84479635D01*
X138700438Y-84479635D02*
X138595676Y-84427254D01*
X138595676Y-84427254D02*
X138386152Y-84374873D01*
X138386152Y-84374873D02*
X138229009Y-84374873D01*
X138229009Y-84374873D02*
X138019485Y-84427254D01*
X138019485Y-84427254D02*
X137914723Y-84479635D01*
X137914723Y-84479635D02*
X137809961Y-84584397D01*
X137809961Y-84584397D02*
X137757580Y-84741540D01*
X137757580Y-84741540D02*
X137757580Y-84846302D01*
X137757580Y-84846302D02*
X137809961Y-85003445D01*
X137809961Y-85003445D02*
X137862342Y-85055826D01*
X137757580Y-85841540D02*
X138543295Y-85841540D01*
X138543295Y-85841540D02*
X138700438Y-85789159D01*
X138700438Y-85789159D02*
X138805200Y-85684397D01*
X138805200Y-85684397D02*
X138857580Y-85527254D01*
X138857580Y-85527254D02*
X138857580Y-85422492D01*
X138857580Y-86941540D02*
X138857580Y-86312968D01*
X138857580Y-86627254D02*
X137757580Y-86627254D01*
X137757580Y-86627254D02*
X137914723Y-86522492D01*
X137914723Y-86522492D02*
X138019485Y-86417730D01*
X138019485Y-86417730D02*
X138071866Y-86312968D01*
X138857580Y-87989159D02*
X138857580Y-87360587D01*
X138857580Y-87674873D02*
X137757580Y-87674873D01*
X137757580Y-87674873D02*
X137914723Y-87570111D01*
X137914723Y-87570111D02*
X138019485Y-87465349D01*
X138019485Y-87465349D02*
X138071866Y-87360587D01*
X138962342Y-88198683D02*
X138962342Y-89036778D01*
X138805200Y-89770111D02*
X138857580Y-89665349D01*
X138857580Y-89665349D02*
X138857580Y-89455825D01*
X138857580Y-89455825D02*
X138805200Y-89351063D01*
X138805200Y-89351063D02*
X138752819Y-89298682D01*
X138752819Y-89298682D02*
X138648057Y-89246301D01*
X138648057Y-89246301D02*
X138333771Y-89246301D01*
X138333771Y-89246301D02*
X138229009Y-89298682D01*
X138229009Y-89298682D02*
X138176628Y-89351063D01*
X138176628Y-89351063D02*
X138124247Y-89455825D01*
X138124247Y-89455825D02*
X138124247Y-89665349D01*
X138124247Y-89665349D02*
X138176628Y-89770111D01*
X138857580Y-90712968D02*
X138281390Y-90712968D01*
X138281390Y-90712968D02*
X138176628Y-90660587D01*
X138176628Y-90660587D02*
X138124247Y-90555825D01*
X138124247Y-90555825D02*
X138124247Y-90346301D01*
X138124247Y-90346301D02*
X138176628Y-90241539D01*
X138805200Y-90712968D02*
X138857580Y-90608206D01*
X138857580Y-90608206D02*
X138857580Y-90346301D01*
X138857580Y-90346301D02*
X138805200Y-90241539D01*
X138805200Y-90241539D02*
X138700438Y-90189158D01*
X138700438Y-90189158D02*
X138595676Y-90189158D01*
X138595676Y-90189158D02*
X138490914Y-90241539D01*
X138490914Y-90241539D02*
X138438533Y-90346301D01*
X138438533Y-90346301D02*
X138438533Y-90608206D01*
X138438533Y-90608206D02*
X138386152Y-90712968D01*
X138857580Y-91236777D02*
X138124247Y-91236777D01*
X138333771Y-91236777D02*
X138229009Y-91289158D01*
X138229009Y-91289158D02*
X138176628Y-91341539D01*
X138176628Y-91341539D02*
X138124247Y-91446301D01*
X138124247Y-91446301D02*
X138124247Y-91551063D01*
X138857580Y-91917729D02*
X138124247Y-91917729D01*
X138333771Y-91917729D02*
X138229009Y-91970110D01*
X138229009Y-91970110D02*
X138176628Y-92022491D01*
X138176628Y-92022491D02*
X138124247Y-92127253D01*
X138124247Y-92127253D02*
X138124247Y-92232015D01*
X138857580Y-92598681D02*
X138124247Y-92598681D01*
X137757580Y-92598681D02*
X137809961Y-92546300D01*
X137809961Y-92546300D02*
X137862342Y-92598681D01*
X137862342Y-92598681D02*
X137809961Y-92651062D01*
X137809961Y-92651062D02*
X137757580Y-92598681D01*
X137757580Y-92598681D02*
X137862342Y-92598681D01*
X138805200Y-93541539D02*
X138857580Y-93436777D01*
X138857580Y-93436777D02*
X138857580Y-93227253D01*
X138857580Y-93227253D02*
X138805200Y-93122491D01*
X138805200Y-93122491D02*
X138700438Y-93070110D01*
X138700438Y-93070110D02*
X138281390Y-93070110D01*
X138281390Y-93070110D02*
X138176628Y-93122491D01*
X138176628Y-93122491D02*
X138124247Y-93227253D01*
X138124247Y-93227253D02*
X138124247Y-93436777D01*
X138124247Y-93436777D02*
X138176628Y-93541539D01*
X138176628Y-93541539D02*
X138281390Y-93593920D01*
X138281390Y-93593920D02*
X138386152Y-93593920D01*
X138386152Y-93593920D02*
X138490914Y-93070110D01*
X138857580Y-94065348D02*
X138124247Y-94065348D01*
X138333771Y-94065348D02*
X138229009Y-94117729D01*
X138229009Y-94117729D02*
X138176628Y-94170110D01*
X138176628Y-94170110D02*
X138124247Y-94274872D01*
X138124247Y-94274872D02*
X138124247Y-94379634D01*
X146574874Y-91485533D02*
X148098684Y-91485533D01*
X123239698Y-88858720D02*
X124763508Y-88858720D01*
X123239698Y-91471850D02*
X124763508Y-91471850D01*
X124001603Y-92233755D02*
X124001603Y-90709945D01*
X146574874Y-88985533D02*
X148098684Y-88985533D01*
X147336779Y-89747438D02*
X147336779Y-88223628D01*
D11*
G36*
X136650000Y-65798750D02*
G01*
X136648614Y-65915495D01*
X136641341Y-66077774D01*
X136624977Y-66247630D01*
X136600128Y-66396519D01*
X136561339Y-66541004D01*
X136508079Y-66679765D01*
X136437691Y-66815411D01*
X136350176Y-66947943D01*
X136245533Y-67077362D01*
X136127564Y-67196716D01*
X136000802Y-67300157D01*
X135865247Y-67387684D01*
X135720900Y-67459296D01*
X135567759Y-67514995D01*
X135405826Y-67554780D01*
X135235101Y-67578651D01*
X135055582Y-67586608D01*
X134876648Y-67578972D01*
X134706574Y-67556062D01*
X134545363Y-67517880D01*
X134393012Y-67464426D01*
X134249524Y-67395698D01*
X134114896Y-67311697D01*
X133989130Y-67212424D01*
X133872226Y-67097878D01*
X133768911Y-66973589D01*
X133681716Y-66842522D01*
X133610642Y-66704678D01*
X133555687Y-66560055D01*
X133523564Y-66449433D01*
X133494488Y-66302598D01*
X133474457Y-66136618D01*
X133464488Y-65979113D01*
X133461676Y-65833921D01*
X133930111Y-65833921D01*
X133930392Y-65872051D01*
X133937124Y-66018717D01*
X133958161Y-66188880D01*
X133993223Y-66344409D01*
X134042310Y-66485306D01*
X134119728Y-66635066D01*
X134217341Y-66763754D01*
X134300654Y-66846014D01*
X134437174Y-66948839D01*
X134587552Y-67026987D01*
X134751789Y-67080456D01*
X134899240Y-67106162D01*
X135056315Y-67114731D01*
X135150654Y-67111607D01*
X135300359Y-67092520D01*
X135467585Y-67046710D01*
X135621260Y-66975913D01*
X135761386Y-66880129D01*
X135887962Y-66759357D01*
X135976433Y-66647201D01*
X136054908Y-66514408D01*
X136113642Y-66371744D01*
X136133062Y-66302006D01*
X136162028Y-66146645D01*
X136176840Y-65988710D01*
X136181053Y-65833921D01*
X136181053Y-65617034D01*
X133930111Y-65617034D01*
X133930111Y-65833921D01*
X133461676Y-65833921D01*
X133461165Y-65807543D01*
X133461165Y-65145157D01*
X136650000Y-65145157D01*
X136650000Y-65798750D01*
G37*
G36*
X133608443Y-70561486D02*
G01*
X134183635Y-70561486D01*
X134083579Y-70430024D01*
X134000482Y-70297131D01*
X133934343Y-70162807D01*
X133877362Y-69999729D01*
X133844801Y-69834591D01*
X133836322Y-69695401D01*
X133844891Y-69545091D01*
X133877795Y-69374732D01*
X133935377Y-69215295D01*
X134017637Y-69066780D01*
X134124575Y-68929187D01*
X134187299Y-68864487D01*
X134300525Y-68766541D01*
X134446361Y-68670920D01*
X134603067Y-68599205D01*
X134770645Y-68551394D01*
X134918596Y-68529813D01*
X135042393Y-68524501D01*
X135194534Y-68532801D01*
X135339091Y-68557702D01*
X135502547Y-68609497D01*
X135655080Y-68685197D01*
X135796691Y-68784802D01*
X135885031Y-68864487D01*
X135983820Y-68974471D01*
X136080266Y-69116323D01*
X136152600Y-69268942D01*
X136200823Y-69432329D01*
X136224934Y-69606484D01*
X136227948Y-69697599D01*
X136219862Y-69849139D01*
X136192290Y-69998808D01*
X136145150Y-70130642D01*
X136078987Y-70263943D01*
X136034508Y-70336538D01*
X135946924Y-70460366D01*
X135865980Y-70561486D01*
X136453628Y-70561486D01*
X136523710Y-70431799D01*
X136592128Y-70273529D01*
X136643442Y-70112375D01*
X136677651Y-69948335D01*
X136694756Y-69781410D01*
X136696894Y-69696866D01*
X136689395Y-69529449D01*
X136666898Y-69368283D01*
X136629403Y-69213368D01*
X136576910Y-69064705D01*
X136509419Y-68922292D01*
X136426929Y-68786130D01*
X136329442Y-68656220D01*
X136216957Y-68532561D01*
X136092748Y-68420075D01*
X135962288Y-68322588D01*
X135825577Y-68240099D01*
X135682615Y-68172608D01*
X135533401Y-68120115D01*
X135377937Y-68082619D01*
X135216221Y-68060122D01*
X135048255Y-68052623D01*
X134897027Y-68058897D01*
X134749989Y-68077719D01*
X134572084Y-68118892D01*
X134400726Y-68179672D01*
X134235916Y-68260057D01*
X134108782Y-68338482D01*
X133985838Y-68429455D01*
X133955757Y-68454159D01*
X133817855Y-68582340D01*
X133698340Y-68719590D01*
X133597212Y-68865906D01*
X133514471Y-69021290D01*
X133450117Y-69185742D01*
X133404149Y-69359262D01*
X133376569Y-69541848D01*
X133367376Y-69733503D01*
X133375851Y-69893215D01*
X133401276Y-70050866D01*
X133443651Y-70206456D01*
X133502976Y-70359986D01*
X133579252Y-70511454D01*
X133608443Y-70561486D01*
G37*
G36*
X133461165Y-72076769D02*
G01*
X135517201Y-72076769D01*
X135669722Y-72074314D01*
X135821877Y-72065499D01*
X135978842Y-72045463D01*
X136066748Y-72025478D01*
X136212206Y-71977461D01*
X136349553Y-71902652D01*
X136414794Y-71852554D01*
X136524714Y-71740936D01*
X136607636Y-71614451D01*
X136663560Y-71473100D01*
X136692486Y-71316883D01*
X136696894Y-71220942D01*
X136686682Y-71074304D01*
X136650779Y-70915249D01*
X136589026Y-70762454D01*
X136533496Y-70664068D01*
X136111444Y-70897808D01*
X136186876Y-71035751D01*
X136226127Y-71185599D01*
X136227948Y-71223872D01*
X136201223Y-71375471D01*
X136103968Y-71496596D01*
X136066015Y-71519162D01*
X135926704Y-71567971D01*
X135770347Y-71592836D01*
X135622370Y-71602798D01*
X135502547Y-71604891D01*
X133461165Y-71604891D01*
X133461165Y-72076769D01*
G37*
G36*
X133930111Y-73606706D02*
G01*
X133930111Y-73059357D01*
X133461165Y-73321674D01*
X133461165Y-74078583D01*
X136673447Y-74078583D01*
X136673447Y-73606706D01*
X133930111Y-73606706D01*
G37*
G36*
X133930111Y-75585073D02*
G01*
X133930111Y-75037725D01*
X133461165Y-75300041D01*
X133461165Y-76056950D01*
X136673447Y-76056950D01*
X136673447Y-75585073D01*
X133930111Y-75585073D01*
G37*
G36*
X133608443Y-81089330D02*
G01*
X134183635Y-81089330D01*
X134083579Y-80957868D01*
X134000482Y-80824975D01*
X133934343Y-80690651D01*
X133877362Y-80527573D01*
X133844801Y-80362434D01*
X133836322Y-80223244D01*
X133844891Y-80072935D01*
X133877795Y-79902576D01*
X133935377Y-79743138D01*
X134017637Y-79594623D01*
X134124575Y-79457031D01*
X134187299Y-79392330D01*
X134300525Y-79294385D01*
X134446361Y-79198764D01*
X134603067Y-79127048D01*
X134770645Y-79079238D01*
X134918596Y-79057657D01*
X135042393Y-79052344D01*
X135194534Y-79060645D01*
X135339091Y-79085546D01*
X135502547Y-79137341D01*
X135655080Y-79213041D01*
X135796691Y-79312646D01*
X135885031Y-79392330D01*
X135983820Y-79502315D01*
X136080266Y-79644166D01*
X136152600Y-79796786D01*
X136200823Y-79960173D01*
X136224934Y-80134327D01*
X136227948Y-80225443D01*
X136219862Y-80376983D01*
X136192290Y-80526652D01*
X136145150Y-80658485D01*
X136078987Y-80791787D01*
X136034508Y-80864382D01*
X135946924Y-80988210D01*
X135865980Y-81089330D01*
X136453628Y-81089330D01*
X136523710Y-80959642D01*
X136592128Y-80801373D01*
X136643442Y-80640219D01*
X136677651Y-80476179D01*
X136694756Y-80309254D01*
X136696894Y-80224710D01*
X136689395Y-80057293D01*
X136666898Y-79896127D01*
X136629403Y-79741212D01*
X136576910Y-79592548D01*
X136509419Y-79450136D01*
X136426929Y-79313974D01*
X136329442Y-79184064D01*
X136216957Y-79060404D01*
X136092748Y-78947919D01*
X135962288Y-78850432D01*
X135825577Y-78767943D01*
X135682615Y-78700451D01*
X135533401Y-78647958D01*
X135377937Y-78610463D01*
X135216221Y-78587966D01*
X135048255Y-78580467D01*
X134897027Y-78586741D01*
X134749989Y-78605563D01*
X134572084Y-78646736D01*
X134400726Y-78707515D01*
X134235916Y-78787901D01*
X134108782Y-78866326D01*
X133985838Y-78957298D01*
X133955757Y-78982002D01*
X133817855Y-79110184D01*
X133698340Y-79247433D01*
X133597212Y-79393750D01*
X133514471Y-79549134D01*
X133450117Y-79713586D01*
X133404149Y-79887105D01*
X133376569Y-80069692D01*
X133367376Y-80261346D01*
X133375851Y-80421058D01*
X133401276Y-80578709D01*
X133443651Y-80734300D01*
X133502976Y-80887829D01*
X133579252Y-81039298D01*
X133608443Y-81089330D01*
G37*
G36*
X136673447Y-81896064D02*
G01*
X135899685Y-82248506D01*
X135899685Y-83604054D01*
X136673447Y-83936713D01*
X136673447Y-84459148D01*
X133272854Y-82948262D01*
X133290342Y-82940202D01*
X134348499Y-82940202D01*
X135430739Y-83409148D01*
X135430739Y-82447808D01*
X134348499Y-82940202D01*
X133290342Y-82940202D01*
X136673447Y-81380956D01*
X136673447Y-81896064D01*
G37*
G36*
X136650000Y-85321570D02*
G01*
X135336950Y-85321570D01*
X135336950Y-85408764D01*
X136650000Y-86321744D01*
X136650000Y-86910125D01*
X135290788Y-85930467D01*
X135245771Y-86080676D01*
X135178864Y-86215498D01*
X135090066Y-86334933D01*
X134979378Y-86438981D01*
X134851746Y-86523290D01*
X134712116Y-86583511D01*
X134560487Y-86619644D01*
X134396859Y-86631688D01*
X134240170Y-86620818D01*
X134095433Y-86588205D01*
X133941680Y-86522679D01*
X133804196Y-86427560D01*
X133699302Y-86322477D01*
X133618372Y-86204951D01*
X133554187Y-86062850D01*
X133506746Y-85896175D01*
X133480002Y-85738506D01*
X133464886Y-85563771D01*
X133463155Y-85493028D01*
X133930111Y-85493028D01*
X133934323Y-85612190D01*
X133960061Y-85784746D01*
X134021834Y-85948837D01*
X134117300Y-86066045D01*
X134246461Y-86136369D01*
X134409316Y-86159811D01*
X134583127Y-86135725D01*
X134720977Y-86063469D01*
X134822866Y-85943041D01*
X134880304Y-85805887D01*
X134912769Y-85635280D01*
X134920760Y-85474710D01*
X134920760Y-85321570D01*
X133930111Y-85321570D01*
X133930111Y-85493028D01*
X133463155Y-85493028D01*
X133461165Y-85411695D01*
X133461165Y-84849692D01*
X136650000Y-84849692D01*
X136650000Y-85321570D01*
G37*
G36*
X136650000Y-87848018D02*
G01*
X135336950Y-87848018D01*
X135336950Y-87935212D01*
X136650000Y-88848192D01*
X136650000Y-89436573D01*
X135290788Y-88456915D01*
X135245771Y-88607124D01*
X135178864Y-88741946D01*
X135090066Y-88861381D01*
X134979378Y-88965429D01*
X134851746Y-89049738D01*
X134712116Y-89109959D01*
X134560487Y-89146092D01*
X134396859Y-89158136D01*
X134240170Y-89147266D01*
X134095433Y-89114653D01*
X133941680Y-89049127D01*
X133804196Y-88954008D01*
X133699302Y-88848925D01*
X133618372Y-88731399D01*
X133554187Y-88589299D01*
X133506746Y-88422623D01*
X133480002Y-88264954D01*
X133464886Y-88090219D01*
X133463155Y-88019476D01*
X133930111Y-88019476D01*
X133934323Y-88138638D01*
X133960061Y-88311194D01*
X134021834Y-88475285D01*
X134117300Y-88592493D01*
X134246461Y-88662818D01*
X134409316Y-88686259D01*
X134583127Y-88662174D01*
X134720977Y-88589917D01*
X134822866Y-88469489D01*
X134880304Y-88332335D01*
X134912769Y-88161728D01*
X134920760Y-88001158D01*
X134920760Y-87848018D01*
X133930111Y-87848018D01*
X133930111Y-88019476D01*
X133463155Y-88019476D01*
X133461165Y-87938143D01*
X133461165Y-87376140D01*
X136650000Y-87376140D01*
X136650000Y-87848018D01*
G37*
G36*
X133461165Y-90374466D02*
G01*
X136650000Y-90374466D01*
X136650000Y-89902588D01*
X133461165Y-89902588D01*
X133461165Y-90374466D01*
G37*
G36*
X133930111Y-92897983D02*
G01*
X133930111Y-91611311D01*
X134680425Y-91611311D01*
X134680425Y-92851088D01*
X135149371Y-92851088D01*
X135149371Y-91611311D01*
X136181053Y-91611311D01*
X136181053Y-92897983D01*
X136650000Y-92897983D01*
X136650000Y-91139434D01*
X133461165Y-91139434D01*
X133461165Y-92897983D01*
X133930111Y-92897983D01*
G37*
G36*
X136650000Y-93985352D02*
G01*
X135336950Y-93985352D01*
X135336950Y-94072547D01*
X136650000Y-94985526D01*
X136650000Y-95573907D01*
X135290788Y-94594249D01*
X135245771Y-94744459D01*
X135178864Y-94879281D01*
X135090066Y-94998715D01*
X134979378Y-95102763D01*
X134851746Y-95187073D01*
X134712116Y-95247294D01*
X134560487Y-95283426D01*
X134396859Y-95295471D01*
X134240170Y-95284600D01*
X134095433Y-95251988D01*
X133941680Y-95186461D01*
X133804196Y-95091343D01*
X133699302Y-94986259D01*
X133618372Y-94868733D01*
X133554187Y-94726633D01*
X133506746Y-94559957D01*
X133480002Y-94402288D01*
X133464886Y-94227553D01*
X133463155Y-94156810D01*
X133930111Y-94156810D01*
X133934323Y-94275972D01*
X133960061Y-94448528D01*
X134021834Y-94612619D01*
X134117300Y-94729827D01*
X134246461Y-94800152D01*
X134409316Y-94823593D01*
X134583127Y-94799508D01*
X134720977Y-94727251D01*
X134822866Y-94606823D01*
X134880304Y-94469669D01*
X134912769Y-94299063D01*
X134920760Y-94138492D01*
X134920760Y-93985352D01*
X133930111Y-93985352D01*
X133930111Y-94156810D01*
X133463155Y-94156810D01*
X133461165Y-94075478D01*
X133461165Y-93513475D01*
X136650000Y-93513475D01*
X136650000Y-93985352D01*
G37*
G36*
X136650000Y-98058590D02*
G01*
X136648533Y-98157150D01*
X136640083Y-98303834D01*
X136621601Y-98452649D01*
X136589916Y-98597878D01*
X136547528Y-98705265D01*
X136466847Y-98838891D01*
X136368632Y-98951786D01*
X136302343Y-99013266D01*
X136177631Y-99101132D01*
X136041841Y-99163894D01*
X135894970Y-99201551D01*
X135737020Y-99214103D01*
X135684319Y-99212795D01*
X135533481Y-99193186D01*
X135378664Y-99143798D01*
X135237299Y-99065359D01*
X135197779Y-99036935D01*
X135082603Y-98928514D01*
X134992901Y-98799056D01*
X134933949Y-98664556D01*
X134918963Y-98681056D01*
X134808332Y-98781885D01*
X134669617Y-98865690D01*
X134517805Y-98915974D01*
X134352896Y-98932735D01*
X134271005Y-98928913D01*
X134119853Y-98901537D01*
X133981402Y-98852868D01*
X133915371Y-98821758D01*
X133786795Y-98740745D01*
X133678053Y-98641109D01*
X133642869Y-98598655D01*
X133562246Y-98464177D01*
X133510990Y-98318709D01*
X133499313Y-98269433D01*
X133475227Y-98113144D01*
X133464972Y-97972128D01*
X133877355Y-97972128D01*
X133881554Y-98057685D01*
X133915145Y-98204689D01*
X133996789Y-98335561D01*
X134054337Y-98384383D01*
X134189302Y-98443238D01*
X134346301Y-98460858D01*
X134431257Y-98456556D01*
X134576750Y-98422141D01*
X134705338Y-98338492D01*
X134769480Y-98248733D01*
X134815093Y-98104752D01*
X134819439Y-98049797D01*
X135243161Y-98049797D01*
X135245267Y-98142831D01*
X135262120Y-98306779D01*
X135301224Y-98455968D01*
X135377983Y-98587620D01*
X135431357Y-98640162D01*
X135562556Y-98716710D01*
X135715038Y-98742226D01*
X135802037Y-98734512D01*
X135945561Y-98679257D01*
X136057222Y-98581025D01*
X136086245Y-98540233D01*
X136146105Y-98400308D01*
X136173314Y-98255556D01*
X136181053Y-98104019D01*
X136181053Y-97807264D01*
X135243161Y-97807264D01*
X135243161Y-98049797D01*
X134819439Y-98049797D01*
X134826971Y-97954542D01*
X134826971Y-97807264D01*
X133877355Y-97807264D01*
X133877355Y-97972128D01*
X133464972Y-97972128D01*
X133464279Y-97962602D01*
X133461165Y-97811660D01*
X133461165Y-97335387D01*
X136650000Y-97335387D01*
X136650000Y-98058590D01*
G37*
G36*
X135207062Y-99659144D02*
G01*
X135385997Y-99684148D01*
X135555750Y-99725822D01*
X135716320Y-99784166D01*
X135867709Y-99859179D01*
X136009915Y-99950861D01*
X136142940Y-100059214D01*
X136266782Y-100184235D01*
X136343648Y-100276143D01*
X136434375Y-100402092D01*
X136511660Y-100531934D01*
X136575505Y-100665668D01*
X136625909Y-100803295D01*
X136670012Y-100980803D01*
X136690174Y-101127188D01*
X136696894Y-101277466D01*
X136689315Y-101446314D01*
X136666577Y-101608843D01*
X136628682Y-101765051D01*
X136575628Y-101914940D01*
X136507415Y-102058509D01*
X136424044Y-102195758D01*
X136325515Y-102326688D01*
X136211828Y-102451297D01*
X136088008Y-102564985D01*
X135957617Y-102663514D01*
X135820654Y-102746885D01*
X135677119Y-102815097D01*
X135527013Y-102868151D01*
X135370335Y-102906047D01*
X135207085Y-102928785D01*
X135037264Y-102936364D01*
X134868336Y-102928819D01*
X134705567Y-102906185D01*
X134548958Y-102868460D01*
X134398508Y-102815647D01*
X134254218Y-102747743D01*
X134116087Y-102664750D01*
X133984116Y-102566668D01*
X133858304Y-102453496D01*
X133743242Y-102330512D01*
X133643523Y-102201529D01*
X133559144Y-102066546D01*
X133490108Y-101925565D01*
X133436412Y-101778584D01*
X133398059Y-101625604D01*
X133375046Y-101466625D01*
X133367376Y-101301646D01*
X133367643Y-101295785D01*
X133836322Y-101295785D01*
X133839355Y-101387254D01*
X133863621Y-101561769D01*
X133912153Y-101725053D01*
X133984951Y-101877106D01*
X134082014Y-102017927D01*
X134181437Y-102126699D01*
X134269903Y-102205868D01*
X134412175Y-102304829D01*
X134565936Y-102380040D01*
X134731187Y-102431499D01*
X134877672Y-102456240D01*
X135032135Y-102464487D01*
X135155062Y-102459140D01*
X135302054Y-102437419D01*
X135468670Y-102389300D01*
X135624621Y-102317120D01*
X135769907Y-102220881D01*
X135882833Y-102122302D01*
X135944509Y-102056908D01*
X136049661Y-101917890D01*
X136130547Y-101767899D01*
X136187168Y-101606933D01*
X136219522Y-101434994D01*
X136227948Y-101283328D01*
X136224966Y-101198277D01*
X136201112Y-101033894D01*
X136153405Y-100877136D01*
X136081844Y-100728003D01*
X135986429Y-100586495D01*
X135888695Y-100474396D01*
X135778134Y-100373073D01*
X135633466Y-100274155D01*
X135475712Y-100199966D01*
X135334254Y-100157033D01*
X135183708Y-100131273D01*
X135024075Y-100122686D01*
X134901274Y-100127998D01*
X134754793Y-100149580D01*
X134589311Y-100197390D01*
X134435060Y-100269106D01*
X134292040Y-100364727D01*
X134181437Y-100462672D01*
X134119761Y-100527641D01*
X134014609Y-100665732D01*
X133933723Y-100814693D01*
X133877102Y-100974525D01*
X133844748Y-101145228D01*
X133836322Y-101295785D01*
X133367643Y-101295785D01*
X133374989Y-101134710D01*
X133397830Y-100973888D01*
X133435897Y-100819179D01*
X133489192Y-100670584D01*
X133557713Y-100528103D01*
X133641462Y-100391735D01*
X133740438Y-100261481D01*
X133854640Y-100137341D01*
X133979261Y-100023310D01*
X134109859Y-99924483D01*
X134246432Y-99840860D01*
X134388982Y-99772442D01*
X134537509Y-99719228D01*
X134692011Y-99681217D01*
X134852490Y-99658411D01*
X135018946Y-99650809D01*
X135207062Y-99659144D01*
G37*
G36*
X136673447Y-103540865D02*
G01*
X135899685Y-103893307D01*
X135899685Y-105248855D01*
X136673447Y-105581514D01*
X136673447Y-106103949D01*
X133272854Y-104593063D01*
X133290342Y-104585003D01*
X134348499Y-104585003D01*
X135430739Y-105053949D01*
X135430739Y-104092609D01*
X134348499Y-104585003D01*
X133290342Y-104585003D01*
X136673447Y-103025757D01*
X136673447Y-103540865D01*
G37*
G36*
X136650000Y-106966371D02*
G01*
X135336950Y-106966371D01*
X135336950Y-107053565D01*
X136650000Y-107966545D01*
X136650000Y-108554926D01*
X135290788Y-107575268D01*
X135245771Y-107725478D01*
X135178864Y-107860300D01*
X135090066Y-107979734D01*
X134979378Y-108083782D01*
X134851746Y-108168091D01*
X134712116Y-108228312D01*
X134560487Y-108264445D01*
X134396859Y-108276489D01*
X134240170Y-108265619D01*
X134095433Y-108233007D01*
X133941680Y-108167480D01*
X133804196Y-108072362D01*
X133699302Y-107967278D01*
X133618372Y-107849752D01*
X133554187Y-107707652D01*
X133506746Y-107540976D01*
X133480002Y-107383307D01*
X133464886Y-107208572D01*
X133463155Y-107137829D01*
X133930111Y-107137829D01*
X133934323Y-107256991D01*
X133960061Y-107429547D01*
X134021834Y-107593638D01*
X134117300Y-107710846D01*
X134246461Y-107781171D01*
X134409316Y-107804612D01*
X134583127Y-107780527D01*
X134720977Y-107708270D01*
X134822866Y-107587842D01*
X134880304Y-107450688D01*
X134912769Y-107280082D01*
X134920760Y-107119511D01*
X134920760Y-106966371D01*
X133930111Y-106966371D01*
X133930111Y-107137829D01*
X133463155Y-107137829D01*
X133461165Y-107056496D01*
X133461165Y-106494494D01*
X136650000Y-106494494D01*
X136650000Y-106966371D01*
G37*
G36*
X136650000Y-109674535D02*
G01*
X136648614Y-109791280D01*
X136641341Y-109953559D01*
X136624977Y-110123415D01*
X136600128Y-110272305D01*
X136561339Y-110416789D01*
X136508079Y-110555550D01*
X136437691Y-110691196D01*
X136350176Y-110823729D01*
X136245533Y-110953147D01*
X136127564Y-111072501D01*
X136000802Y-111175942D01*
X135865247Y-111263469D01*
X135720900Y-111335081D01*
X135567759Y-111390780D01*
X135405826Y-111430565D01*
X135235101Y-111454436D01*
X135055582Y-111462393D01*
X134876648Y-111454757D01*
X134706574Y-111431847D01*
X134545363Y-111393665D01*
X134393012Y-111340211D01*
X134249524Y-111271483D01*
X134114896Y-111187482D01*
X133989130Y-111088209D01*
X133872226Y-110973663D01*
X133768911Y-110849374D01*
X133681716Y-110718307D01*
X133610642Y-110580463D01*
X133555687Y-110435840D01*
X133523564Y-110325218D01*
X133494488Y-110178383D01*
X133474457Y-110012403D01*
X133464488Y-109854898D01*
X133461676Y-109709706D01*
X133930111Y-109709706D01*
X133930392Y-109747836D01*
X133937124Y-109894502D01*
X133958161Y-110064665D01*
X133993223Y-110220194D01*
X134042310Y-110361091D01*
X134119728Y-110510851D01*
X134217341Y-110639539D01*
X134300654Y-110721799D01*
X134437174Y-110824624D01*
X134587552Y-110902772D01*
X134751789Y-110956241D01*
X134899240Y-110981947D01*
X135056315Y-110990516D01*
X135150654Y-110987393D01*
X135300359Y-110968305D01*
X135467585Y-110922495D01*
X135621260Y-110851698D01*
X135761386Y-110755914D01*
X135887962Y-110635143D01*
X135976433Y-110522986D01*
X136054908Y-110390193D01*
X136113642Y-110247529D01*
X136133062Y-110177791D01*
X136162028Y-110022430D01*
X136176840Y-109864495D01*
X136181053Y-109709706D01*
X136181053Y-109492819D01*
X133930111Y-109492819D01*
X133930111Y-109709706D01*
X133461676Y-109709706D01*
X133461165Y-109683328D01*
X133461165Y-109020942D01*
X136650000Y-109020942D01*
X136650000Y-109674535D01*
G37*
D10*
X130962819Y-90701905D02*
X129962819Y-90701905D01*
X129962819Y-90701905D02*
X129962819Y-90940000D01*
X129962819Y-90940000D02*
X130010438Y-91082857D01*
X130010438Y-91082857D02*
X130105676Y-91178095D01*
X130105676Y-91178095D02*
X130200914Y-91225714D01*
X130200914Y-91225714D02*
X130391390Y-91273333D01*
X130391390Y-91273333D02*
X130534247Y-91273333D01*
X130534247Y-91273333D02*
X130724723Y-91225714D01*
X130724723Y-91225714D02*
X130819961Y-91178095D01*
X130819961Y-91178095D02*
X130915200Y-91082857D01*
X130915200Y-91082857D02*
X130962819Y-90940000D01*
X130962819Y-90940000D02*
X130962819Y-90701905D01*
X130296152Y-92130476D02*
X130962819Y-92130476D01*
X129915200Y-91892381D02*
X130629485Y-91654286D01*
X130629485Y-91654286D02*
X130629485Y-92273333D01*
X141866857Y-127454819D02*
X142200190Y-126978628D01*
X142438285Y-127454819D02*
X142438285Y-126454819D01*
X142438285Y-126454819D02*
X142057333Y-126454819D01*
X142057333Y-126454819D02*
X141962095Y-126502438D01*
X141962095Y-126502438D02*
X141914476Y-126550057D01*
X141914476Y-126550057D02*
X141866857Y-126645295D01*
X141866857Y-126645295D02*
X141866857Y-126788152D01*
X141866857Y-126788152D02*
X141914476Y-126883390D01*
X141914476Y-126883390D02*
X141962095Y-126931009D01*
X141962095Y-126931009D02*
X142057333Y-126978628D01*
X142057333Y-126978628D02*
X142438285Y-126978628D01*
X140914476Y-127454819D02*
X141485904Y-127454819D01*
X141200190Y-127454819D02*
X141200190Y-126454819D01*
X141200190Y-126454819D02*
X141295428Y-126597676D01*
X141295428Y-126597676D02*
X141390666Y-126692914D01*
X141390666Y-126692914D02*
X141485904Y-126740533D01*
X140438285Y-127454819D02*
X140247809Y-127454819D01*
X140247809Y-127454819D02*
X140152571Y-127407200D01*
X140152571Y-127407200D02*
X140104952Y-127359580D01*
X140104952Y-127359580D02*
X140009714Y-127216723D01*
X140009714Y-127216723D02*
X139962095Y-127026247D01*
X139962095Y-127026247D02*
X139962095Y-126645295D01*
X139962095Y-126645295D02*
X140009714Y-126550057D01*
X140009714Y-126550057D02*
X140057333Y-126502438D01*
X140057333Y-126502438D02*
X140152571Y-126454819D01*
X140152571Y-126454819D02*
X140343047Y-126454819D01*
X140343047Y-126454819D02*
X140438285Y-126502438D01*
X140438285Y-126502438D02*
X140485904Y-126550057D01*
X140485904Y-126550057D02*
X140533523Y-126645295D01*
X140533523Y-126645295D02*
X140533523Y-126883390D01*
X140533523Y-126883390D02*
X140485904Y-126978628D01*
X140485904Y-126978628D02*
X140438285Y-127026247D01*
X140438285Y-127026247D02*
X140343047Y-127073866D01*
X140343047Y-127073866D02*
X140152571Y-127073866D01*
X140152571Y-127073866D02*
X140057333Y-127026247D01*
X140057333Y-127026247D02*
X140009714Y-126978628D01*
X140009714Y-126978628D02*
X139962095Y-126883390D01*
X131182857Y-122374819D02*
X131516190Y-121898628D01*
X131754285Y-122374819D02*
X131754285Y-121374819D01*
X131754285Y-121374819D02*
X131373333Y-121374819D01*
X131373333Y-121374819D02*
X131278095Y-121422438D01*
X131278095Y-121422438D02*
X131230476Y-121470057D01*
X131230476Y-121470057D02*
X131182857Y-121565295D01*
X131182857Y-121565295D02*
X131182857Y-121708152D01*
X131182857Y-121708152D02*
X131230476Y-121803390D01*
X131230476Y-121803390D02*
X131278095Y-121851009D01*
X131278095Y-121851009D02*
X131373333Y-121898628D01*
X131373333Y-121898628D02*
X131754285Y-121898628D01*
X130230476Y-122374819D02*
X130801904Y-122374819D01*
X130516190Y-122374819D02*
X130516190Y-121374819D01*
X130516190Y-121374819D02*
X130611428Y-121517676D01*
X130611428Y-121517676D02*
X130706666Y-121612914D01*
X130706666Y-121612914D02*
X130801904Y-121660533D01*
X129659047Y-121803390D02*
X129754285Y-121755771D01*
X129754285Y-121755771D02*
X129801904Y-121708152D01*
X129801904Y-121708152D02*
X129849523Y-121612914D01*
X129849523Y-121612914D02*
X129849523Y-121565295D01*
X129849523Y-121565295D02*
X129801904Y-121470057D01*
X129801904Y-121470057D02*
X129754285Y-121422438D01*
X129754285Y-121422438D02*
X129659047Y-121374819D01*
X129659047Y-121374819D02*
X129468571Y-121374819D01*
X129468571Y-121374819D02*
X129373333Y-121422438D01*
X129373333Y-121422438D02*
X129325714Y-121470057D01*
X129325714Y-121470057D02*
X129278095Y-121565295D01*
X129278095Y-121565295D02*
X129278095Y-121612914D01*
X129278095Y-121612914D02*
X129325714Y-121708152D01*
X129325714Y-121708152D02*
X129373333Y-121755771D01*
X129373333Y-121755771D02*
X129468571Y-121803390D01*
X129468571Y-121803390D02*
X129659047Y-121803390D01*
X129659047Y-121803390D02*
X129754285Y-121851009D01*
X129754285Y-121851009D02*
X129801904Y-121898628D01*
X129801904Y-121898628D02*
X129849523Y-121993866D01*
X129849523Y-121993866D02*
X129849523Y-122184342D01*
X129849523Y-122184342D02*
X129801904Y-122279580D01*
X129801904Y-122279580D02*
X129754285Y-122327200D01*
X129754285Y-122327200D02*
X129659047Y-122374819D01*
X129659047Y-122374819D02*
X129468571Y-122374819D01*
X129468571Y-122374819D02*
X129373333Y-122327200D01*
X129373333Y-122327200D02*
X129325714Y-122279580D01*
X129325714Y-122279580D02*
X129278095Y-122184342D01*
X129278095Y-122184342D02*
X129278095Y-121993866D01*
X129278095Y-121993866D02*
X129325714Y-121898628D01*
X129325714Y-121898628D02*
X129373333Y-121851009D01*
X129373333Y-121851009D02*
X129468571Y-121803390D01*
X142390857Y-99514819D02*
X142724190Y-99038628D01*
X142962285Y-99514819D02*
X142962285Y-98514819D01*
X142962285Y-98514819D02*
X142581333Y-98514819D01*
X142581333Y-98514819D02*
X142486095Y-98562438D01*
X142486095Y-98562438D02*
X142438476Y-98610057D01*
X142438476Y-98610057D02*
X142390857Y-98705295D01*
X142390857Y-98705295D02*
X142390857Y-98848152D01*
X142390857Y-98848152D02*
X142438476Y-98943390D01*
X142438476Y-98943390D02*
X142486095Y-98991009D01*
X142486095Y-98991009D02*
X142581333Y-99038628D01*
X142581333Y-99038628D02*
X142962285Y-99038628D01*
X141438476Y-99514819D02*
X142009904Y-99514819D01*
X141724190Y-99514819D02*
X141724190Y-98514819D01*
X141724190Y-98514819D02*
X141819428Y-98657676D01*
X141819428Y-98657676D02*
X141914666Y-98752914D01*
X141914666Y-98752914D02*
X142009904Y-98800533D01*
X141105142Y-98514819D02*
X140438476Y-98514819D01*
X140438476Y-98514819D02*
X140867047Y-99514819D01*
X141977857Y-122374819D02*
X142311190Y-121898628D01*
X142549285Y-122374819D02*
X142549285Y-121374819D01*
X142549285Y-121374819D02*
X142168333Y-121374819D01*
X142168333Y-121374819D02*
X142073095Y-121422438D01*
X142073095Y-121422438D02*
X142025476Y-121470057D01*
X142025476Y-121470057D02*
X141977857Y-121565295D01*
X141977857Y-121565295D02*
X141977857Y-121708152D01*
X141977857Y-121708152D02*
X142025476Y-121803390D01*
X142025476Y-121803390D02*
X142073095Y-121851009D01*
X142073095Y-121851009D02*
X142168333Y-121898628D01*
X142168333Y-121898628D02*
X142549285Y-121898628D01*
X141025476Y-122374819D02*
X141596904Y-122374819D01*
X141311190Y-122374819D02*
X141311190Y-121374819D01*
X141311190Y-121374819D02*
X141406428Y-121517676D01*
X141406428Y-121517676D02*
X141501666Y-121612914D01*
X141501666Y-121612914D02*
X141596904Y-121660533D01*
X140168333Y-121374819D02*
X140358809Y-121374819D01*
X140358809Y-121374819D02*
X140454047Y-121422438D01*
X140454047Y-121422438D02*
X140501666Y-121470057D01*
X140501666Y-121470057D02*
X140596904Y-121612914D01*
X140596904Y-121612914D02*
X140644523Y-121803390D01*
X140644523Y-121803390D02*
X140644523Y-122184342D01*
X140644523Y-122184342D02*
X140596904Y-122279580D01*
X140596904Y-122279580D02*
X140549285Y-122327200D01*
X140549285Y-122327200D02*
X140454047Y-122374819D01*
X140454047Y-122374819D02*
X140263571Y-122374819D01*
X140263571Y-122374819D02*
X140168333Y-122327200D01*
X140168333Y-122327200D02*
X140120714Y-122279580D01*
X140120714Y-122279580D02*
X140073095Y-122184342D01*
X140073095Y-122184342D02*
X140073095Y-121946247D01*
X140073095Y-121946247D02*
X140120714Y-121851009D01*
X140120714Y-121851009D02*
X140168333Y-121803390D01*
X140168333Y-121803390D02*
X140263571Y-121755771D01*
X140263571Y-121755771D02*
X140454047Y-121755771D01*
X140454047Y-121755771D02*
X140549285Y-121803390D01*
X140549285Y-121803390D02*
X140596904Y-121851009D01*
X140596904Y-121851009D02*
X140644523Y-121946247D01*
X141977857Y-124914819D02*
X142311190Y-124438628D01*
X142549285Y-124914819D02*
X142549285Y-123914819D01*
X142549285Y-123914819D02*
X142168333Y-123914819D01*
X142168333Y-123914819D02*
X142073095Y-123962438D01*
X142073095Y-123962438D02*
X142025476Y-124010057D01*
X142025476Y-124010057D02*
X141977857Y-124105295D01*
X141977857Y-124105295D02*
X141977857Y-124248152D01*
X141977857Y-124248152D02*
X142025476Y-124343390D01*
X142025476Y-124343390D02*
X142073095Y-124391009D01*
X142073095Y-124391009D02*
X142168333Y-124438628D01*
X142168333Y-124438628D02*
X142549285Y-124438628D01*
X141025476Y-124914819D02*
X141596904Y-124914819D01*
X141311190Y-124914819D02*
X141311190Y-123914819D01*
X141311190Y-123914819D02*
X141406428Y-124057676D01*
X141406428Y-124057676D02*
X141501666Y-124152914D01*
X141501666Y-124152914D02*
X141596904Y-124200533D01*
X140120714Y-123914819D02*
X140596904Y-123914819D01*
X140596904Y-123914819D02*
X140644523Y-124391009D01*
X140644523Y-124391009D02*
X140596904Y-124343390D01*
X140596904Y-124343390D02*
X140501666Y-124295771D01*
X140501666Y-124295771D02*
X140263571Y-124295771D01*
X140263571Y-124295771D02*
X140168333Y-124343390D01*
X140168333Y-124343390D02*
X140120714Y-124391009D01*
X140120714Y-124391009D02*
X140073095Y-124486247D01*
X140073095Y-124486247D02*
X140073095Y-124724342D01*
X140073095Y-124724342D02*
X140120714Y-124819580D01*
X140120714Y-124819580D02*
X140168333Y-124867200D01*
X140168333Y-124867200D02*
X140263571Y-124914819D01*
X140263571Y-124914819D02*
X140501666Y-124914819D01*
X140501666Y-124914819D02*
X140596904Y-124867200D01*
X140596904Y-124867200D02*
X140644523Y-124819580D01*
X131182857Y-119834819D02*
X131516190Y-119358628D01*
X131754285Y-119834819D02*
X131754285Y-118834819D01*
X131754285Y-118834819D02*
X131373333Y-118834819D01*
X131373333Y-118834819D02*
X131278095Y-118882438D01*
X131278095Y-118882438D02*
X131230476Y-118930057D01*
X131230476Y-118930057D02*
X131182857Y-119025295D01*
X131182857Y-119025295D02*
X131182857Y-119168152D01*
X131182857Y-119168152D02*
X131230476Y-119263390D01*
X131230476Y-119263390D02*
X131278095Y-119311009D01*
X131278095Y-119311009D02*
X131373333Y-119358628D01*
X131373333Y-119358628D02*
X131754285Y-119358628D01*
X130230476Y-119834819D02*
X130801904Y-119834819D01*
X130516190Y-119834819D02*
X130516190Y-118834819D01*
X130516190Y-118834819D02*
X130611428Y-118977676D01*
X130611428Y-118977676D02*
X130706666Y-119072914D01*
X130706666Y-119072914D02*
X130801904Y-119120533D01*
X129373333Y-119168152D02*
X129373333Y-119834819D01*
X129611428Y-118787200D02*
X129849523Y-119501485D01*
X129849523Y-119501485D02*
X129230476Y-119501485D01*
X131182857Y-74114819D02*
X131516190Y-73638628D01*
X131754285Y-74114819D02*
X131754285Y-73114819D01*
X131754285Y-73114819D02*
X131373333Y-73114819D01*
X131373333Y-73114819D02*
X131278095Y-73162438D01*
X131278095Y-73162438D02*
X131230476Y-73210057D01*
X131230476Y-73210057D02*
X131182857Y-73305295D01*
X131182857Y-73305295D02*
X131182857Y-73448152D01*
X131182857Y-73448152D02*
X131230476Y-73543390D01*
X131230476Y-73543390D02*
X131278095Y-73591009D01*
X131278095Y-73591009D02*
X131373333Y-73638628D01*
X131373333Y-73638628D02*
X131754285Y-73638628D01*
X130230476Y-74114819D02*
X130801904Y-74114819D01*
X130516190Y-74114819D02*
X130516190Y-73114819D01*
X130516190Y-73114819D02*
X130611428Y-73257676D01*
X130611428Y-73257676D02*
X130706666Y-73352914D01*
X130706666Y-73352914D02*
X130801904Y-73400533D01*
X129897142Y-73114819D02*
X129278095Y-73114819D01*
X129278095Y-73114819D02*
X129611428Y-73495771D01*
X129611428Y-73495771D02*
X129468571Y-73495771D01*
X129468571Y-73495771D02*
X129373333Y-73543390D01*
X129373333Y-73543390D02*
X129325714Y-73591009D01*
X129325714Y-73591009D02*
X129278095Y-73686247D01*
X129278095Y-73686247D02*
X129278095Y-73924342D01*
X129278095Y-73924342D02*
X129325714Y-74019580D01*
X129325714Y-74019580D02*
X129373333Y-74067200D01*
X129373333Y-74067200D02*
X129468571Y-74114819D01*
X129468571Y-74114819D02*
X129754285Y-74114819D01*
X129754285Y-74114819D02*
X129849523Y-74067200D01*
X129849523Y-74067200D02*
X129897142Y-74019580D01*
X131087857Y-86814819D02*
X131421190Y-86338628D01*
X131659285Y-86814819D02*
X131659285Y-85814819D01*
X131659285Y-85814819D02*
X131278333Y-85814819D01*
X131278333Y-85814819D02*
X131183095Y-85862438D01*
X131183095Y-85862438D02*
X131135476Y-85910057D01*
X131135476Y-85910057D02*
X131087857Y-86005295D01*
X131087857Y-86005295D02*
X131087857Y-86148152D01*
X131087857Y-86148152D02*
X131135476Y-86243390D01*
X131135476Y-86243390D02*
X131183095Y-86291009D01*
X131183095Y-86291009D02*
X131278333Y-86338628D01*
X131278333Y-86338628D02*
X131659285Y-86338628D01*
X130135476Y-86814819D02*
X130706904Y-86814819D01*
X130421190Y-86814819D02*
X130421190Y-85814819D01*
X130421190Y-85814819D02*
X130516428Y-85957676D01*
X130516428Y-85957676D02*
X130611666Y-86052914D01*
X130611666Y-86052914D02*
X130706904Y-86100533D01*
X129754523Y-85910057D02*
X129706904Y-85862438D01*
X129706904Y-85862438D02*
X129611666Y-85814819D01*
X129611666Y-85814819D02*
X129373571Y-85814819D01*
X129373571Y-85814819D02*
X129278333Y-85862438D01*
X129278333Y-85862438D02*
X129230714Y-85910057D01*
X129230714Y-85910057D02*
X129183095Y-86005295D01*
X129183095Y-86005295D02*
X129183095Y-86100533D01*
X129183095Y-86100533D02*
X129230714Y-86243390D01*
X129230714Y-86243390D02*
X129802142Y-86814819D01*
X129802142Y-86814819D02*
X129183095Y-86814819D01*
X131087857Y-71574819D02*
X131421190Y-71098628D01*
X131659285Y-71574819D02*
X131659285Y-70574819D01*
X131659285Y-70574819D02*
X131278333Y-70574819D01*
X131278333Y-70574819D02*
X131183095Y-70622438D01*
X131183095Y-70622438D02*
X131135476Y-70670057D01*
X131135476Y-70670057D02*
X131087857Y-70765295D01*
X131087857Y-70765295D02*
X131087857Y-70908152D01*
X131087857Y-70908152D02*
X131135476Y-71003390D01*
X131135476Y-71003390D02*
X131183095Y-71051009D01*
X131183095Y-71051009D02*
X131278333Y-71098628D01*
X131278333Y-71098628D02*
X131659285Y-71098628D01*
X130135476Y-71574819D02*
X130706904Y-71574819D01*
X130421190Y-71574819D02*
X130421190Y-70574819D01*
X130421190Y-70574819D02*
X130516428Y-70717676D01*
X130516428Y-70717676D02*
X130611666Y-70812914D01*
X130611666Y-70812914D02*
X130706904Y-70860533D01*
X129183095Y-71574819D02*
X129754523Y-71574819D01*
X129468809Y-71574819D02*
X129468809Y-70574819D01*
X129468809Y-70574819D02*
X129564047Y-70717676D01*
X129564047Y-70717676D02*
X129659285Y-70812914D01*
X129659285Y-70812914D02*
X129754523Y-70860533D01*
X131087857Y-69034819D02*
X131421190Y-68558628D01*
X131659285Y-69034819D02*
X131659285Y-68034819D01*
X131659285Y-68034819D02*
X131278333Y-68034819D01*
X131278333Y-68034819D02*
X131183095Y-68082438D01*
X131183095Y-68082438D02*
X131135476Y-68130057D01*
X131135476Y-68130057D02*
X131087857Y-68225295D01*
X131087857Y-68225295D02*
X131087857Y-68368152D01*
X131087857Y-68368152D02*
X131135476Y-68463390D01*
X131135476Y-68463390D02*
X131183095Y-68511009D01*
X131183095Y-68511009D02*
X131278333Y-68558628D01*
X131278333Y-68558628D02*
X131659285Y-68558628D01*
X130135476Y-69034819D02*
X130706904Y-69034819D01*
X130421190Y-69034819D02*
X130421190Y-68034819D01*
X130421190Y-68034819D02*
X130516428Y-68177676D01*
X130516428Y-68177676D02*
X130611666Y-68272914D01*
X130611666Y-68272914D02*
X130706904Y-68320533D01*
X129516428Y-68034819D02*
X129421190Y-68034819D01*
X129421190Y-68034819D02*
X129325952Y-68082438D01*
X129325952Y-68082438D02*
X129278333Y-68130057D01*
X129278333Y-68130057D02*
X129230714Y-68225295D01*
X129230714Y-68225295D02*
X129183095Y-68415771D01*
X129183095Y-68415771D02*
X129183095Y-68653866D01*
X129183095Y-68653866D02*
X129230714Y-68844342D01*
X129230714Y-68844342D02*
X129278333Y-68939580D01*
X129278333Y-68939580D02*
X129325952Y-68987200D01*
X129325952Y-68987200D02*
X129421190Y-69034819D01*
X129421190Y-69034819D02*
X129516428Y-69034819D01*
X129516428Y-69034819D02*
X129611666Y-68987200D01*
X129611666Y-68987200D02*
X129659285Y-68939580D01*
X129659285Y-68939580D02*
X129706904Y-68844342D01*
X129706904Y-68844342D02*
X129754523Y-68653866D01*
X129754523Y-68653866D02*
X129754523Y-68415771D01*
X129754523Y-68415771D02*
X129706904Y-68225295D01*
X129706904Y-68225295D02*
X129659285Y-68130057D01*
X129659285Y-68130057D02*
X129611666Y-68082438D01*
X129611666Y-68082438D02*
X129516428Y-68034819D01*
X130071666Y-66494819D02*
X130404999Y-66018628D01*
X130643094Y-66494819D02*
X130643094Y-65494819D01*
X130643094Y-65494819D02*
X130262142Y-65494819D01*
X130262142Y-65494819D02*
X130166904Y-65542438D01*
X130166904Y-65542438D02*
X130119285Y-65590057D01*
X130119285Y-65590057D02*
X130071666Y-65685295D01*
X130071666Y-65685295D02*
X130071666Y-65828152D01*
X130071666Y-65828152D02*
X130119285Y-65923390D01*
X130119285Y-65923390D02*
X130166904Y-65971009D01*
X130166904Y-65971009D02*
X130262142Y-66018628D01*
X130262142Y-66018628D02*
X130643094Y-66018628D01*
X129595475Y-66494819D02*
X129404999Y-66494819D01*
X129404999Y-66494819D02*
X129309761Y-66447200D01*
X129309761Y-66447200D02*
X129262142Y-66399580D01*
X129262142Y-66399580D02*
X129166904Y-66256723D01*
X129166904Y-66256723D02*
X129119285Y-66066247D01*
X129119285Y-66066247D02*
X129119285Y-65685295D01*
X129119285Y-65685295D02*
X129166904Y-65590057D01*
X129166904Y-65590057D02*
X129214523Y-65542438D01*
X129214523Y-65542438D02*
X129309761Y-65494819D01*
X129309761Y-65494819D02*
X129500237Y-65494819D01*
X129500237Y-65494819D02*
X129595475Y-65542438D01*
X129595475Y-65542438D02*
X129643094Y-65590057D01*
X129643094Y-65590057D02*
X129690713Y-65685295D01*
X129690713Y-65685295D02*
X129690713Y-65923390D01*
X129690713Y-65923390D02*
X129643094Y-66018628D01*
X129643094Y-66018628D02*
X129595475Y-66066247D01*
X129595475Y-66066247D02*
X129500237Y-66113866D01*
X129500237Y-66113866D02*
X129309761Y-66113866D01*
X129309761Y-66113866D02*
X129214523Y-66066247D01*
X129214523Y-66066247D02*
X129166904Y-66018628D01*
X129166904Y-66018628D02*
X129119285Y-65923390D01*
X129976666Y-53794819D02*
X130309999Y-53318628D01*
X130548094Y-53794819D02*
X130548094Y-52794819D01*
X130548094Y-52794819D02*
X130167142Y-52794819D01*
X130167142Y-52794819D02*
X130071904Y-52842438D01*
X130071904Y-52842438D02*
X130024285Y-52890057D01*
X130024285Y-52890057D02*
X129976666Y-52985295D01*
X129976666Y-52985295D02*
X129976666Y-53128152D01*
X129976666Y-53128152D02*
X130024285Y-53223390D01*
X130024285Y-53223390D02*
X130071904Y-53271009D01*
X130071904Y-53271009D02*
X130167142Y-53318628D01*
X130167142Y-53318628D02*
X130548094Y-53318628D01*
X129405237Y-53223390D02*
X129500475Y-53175771D01*
X129500475Y-53175771D02*
X129548094Y-53128152D01*
X129548094Y-53128152D02*
X129595713Y-53032914D01*
X129595713Y-53032914D02*
X129595713Y-52985295D01*
X129595713Y-52985295D02*
X129548094Y-52890057D01*
X129548094Y-52890057D02*
X129500475Y-52842438D01*
X129500475Y-52842438D02*
X129405237Y-52794819D01*
X129405237Y-52794819D02*
X129214761Y-52794819D01*
X129214761Y-52794819D02*
X129119523Y-52842438D01*
X129119523Y-52842438D02*
X129071904Y-52890057D01*
X129071904Y-52890057D02*
X129024285Y-52985295D01*
X129024285Y-52985295D02*
X129024285Y-53032914D01*
X129024285Y-53032914D02*
X129071904Y-53128152D01*
X129071904Y-53128152D02*
X129119523Y-53175771D01*
X129119523Y-53175771D02*
X129214761Y-53223390D01*
X129214761Y-53223390D02*
X129405237Y-53223390D01*
X129405237Y-53223390D02*
X129500475Y-53271009D01*
X129500475Y-53271009D02*
X129548094Y-53318628D01*
X129548094Y-53318628D02*
X129595713Y-53413866D01*
X129595713Y-53413866D02*
X129595713Y-53604342D01*
X129595713Y-53604342D02*
X129548094Y-53699580D01*
X129548094Y-53699580D02*
X129500475Y-53747200D01*
X129500475Y-53747200D02*
X129405237Y-53794819D01*
X129405237Y-53794819D02*
X129214761Y-53794819D01*
X129214761Y-53794819D02*
X129119523Y-53747200D01*
X129119523Y-53747200D02*
X129071904Y-53699580D01*
X129071904Y-53699580D02*
X129024285Y-53604342D01*
X129024285Y-53604342D02*
X129024285Y-53413866D01*
X129024285Y-53413866D02*
X129071904Y-53318628D01*
X129071904Y-53318628D02*
X129119523Y-53271009D01*
X129119523Y-53271009D02*
X129214761Y-53223390D01*
X130071666Y-84274819D02*
X130404999Y-83798628D01*
X130643094Y-84274819D02*
X130643094Y-83274819D01*
X130643094Y-83274819D02*
X130262142Y-83274819D01*
X130262142Y-83274819D02*
X130166904Y-83322438D01*
X130166904Y-83322438D02*
X130119285Y-83370057D01*
X130119285Y-83370057D02*
X130071666Y-83465295D01*
X130071666Y-83465295D02*
X130071666Y-83608152D01*
X130071666Y-83608152D02*
X130119285Y-83703390D01*
X130119285Y-83703390D02*
X130166904Y-83751009D01*
X130166904Y-83751009D02*
X130262142Y-83798628D01*
X130262142Y-83798628D02*
X130643094Y-83798628D01*
X129738332Y-83274819D02*
X129071666Y-83274819D01*
X129071666Y-83274819D02*
X129500237Y-84274819D01*
X129976666Y-81734819D02*
X130309999Y-81258628D01*
X130548094Y-81734819D02*
X130548094Y-80734819D01*
X130548094Y-80734819D02*
X130167142Y-80734819D01*
X130167142Y-80734819D02*
X130071904Y-80782438D01*
X130071904Y-80782438D02*
X130024285Y-80830057D01*
X130024285Y-80830057D02*
X129976666Y-80925295D01*
X129976666Y-80925295D02*
X129976666Y-81068152D01*
X129976666Y-81068152D02*
X130024285Y-81163390D01*
X130024285Y-81163390D02*
X130071904Y-81211009D01*
X130071904Y-81211009D02*
X130167142Y-81258628D01*
X130167142Y-81258628D02*
X130548094Y-81258628D01*
X129119523Y-80734819D02*
X129309999Y-80734819D01*
X129309999Y-80734819D02*
X129405237Y-80782438D01*
X129405237Y-80782438D02*
X129452856Y-80830057D01*
X129452856Y-80830057D02*
X129548094Y-80972914D01*
X129548094Y-80972914D02*
X129595713Y-81163390D01*
X129595713Y-81163390D02*
X129595713Y-81544342D01*
X129595713Y-81544342D02*
X129548094Y-81639580D01*
X129548094Y-81639580D02*
X129500475Y-81687200D01*
X129500475Y-81687200D02*
X129405237Y-81734819D01*
X129405237Y-81734819D02*
X129214761Y-81734819D01*
X129214761Y-81734819D02*
X129119523Y-81687200D01*
X129119523Y-81687200D02*
X129071904Y-81639580D01*
X129071904Y-81639580D02*
X129024285Y-81544342D01*
X129024285Y-81544342D02*
X129024285Y-81306247D01*
X129024285Y-81306247D02*
X129071904Y-81211009D01*
X129071904Y-81211009D02*
X129119523Y-81163390D01*
X129119523Y-81163390D02*
X129214761Y-81115771D01*
X129214761Y-81115771D02*
X129405237Y-81115771D01*
X129405237Y-81115771D02*
X129500475Y-81163390D01*
X129500475Y-81163390D02*
X129548094Y-81211009D01*
X129548094Y-81211009D02*
X129595713Y-81306247D01*
X130071666Y-79194819D02*
X130404999Y-78718628D01*
X130643094Y-79194819D02*
X130643094Y-78194819D01*
X130643094Y-78194819D02*
X130262142Y-78194819D01*
X130262142Y-78194819D02*
X130166904Y-78242438D01*
X130166904Y-78242438D02*
X130119285Y-78290057D01*
X130119285Y-78290057D02*
X130071666Y-78385295D01*
X130071666Y-78385295D02*
X130071666Y-78528152D01*
X130071666Y-78528152D02*
X130119285Y-78623390D01*
X130119285Y-78623390D02*
X130166904Y-78671009D01*
X130166904Y-78671009D02*
X130262142Y-78718628D01*
X130262142Y-78718628D02*
X130643094Y-78718628D01*
X129166904Y-78194819D02*
X129643094Y-78194819D01*
X129643094Y-78194819D02*
X129690713Y-78671009D01*
X129690713Y-78671009D02*
X129643094Y-78623390D01*
X129643094Y-78623390D02*
X129547856Y-78575771D01*
X129547856Y-78575771D02*
X129309761Y-78575771D01*
X129309761Y-78575771D02*
X129214523Y-78623390D01*
X129214523Y-78623390D02*
X129166904Y-78671009D01*
X129166904Y-78671009D02*
X129119285Y-78766247D01*
X129119285Y-78766247D02*
X129119285Y-79004342D01*
X129119285Y-79004342D02*
X129166904Y-79099580D01*
X129166904Y-79099580D02*
X129214523Y-79147200D01*
X129214523Y-79147200D02*
X129309761Y-79194819D01*
X129309761Y-79194819D02*
X129547856Y-79194819D01*
X129547856Y-79194819D02*
X129643094Y-79147200D01*
X129643094Y-79147200D02*
X129690713Y-79099580D01*
X129976666Y-76654819D02*
X130309999Y-76178628D01*
X130548094Y-76654819D02*
X130548094Y-75654819D01*
X130548094Y-75654819D02*
X130167142Y-75654819D01*
X130167142Y-75654819D02*
X130071904Y-75702438D01*
X130071904Y-75702438D02*
X130024285Y-75750057D01*
X130024285Y-75750057D02*
X129976666Y-75845295D01*
X129976666Y-75845295D02*
X129976666Y-75988152D01*
X129976666Y-75988152D02*
X130024285Y-76083390D01*
X130024285Y-76083390D02*
X130071904Y-76131009D01*
X130071904Y-76131009D02*
X130167142Y-76178628D01*
X130167142Y-76178628D02*
X130548094Y-76178628D01*
X129119523Y-75988152D02*
X129119523Y-76654819D01*
X129357618Y-75607200D02*
X129595713Y-76321485D01*
X129595713Y-76321485D02*
X128976666Y-76321485D01*
D12*
%TO.C,D4*%
X125358000Y-89290000D02*
X125358000Y-95100000D01*
X129658000Y-89290000D02*
X129658000Y-95100000D01*
X125358000Y-95100000D02*
X129658000Y-95100000D01*
%TO.C,R19*%
X144552936Y-126265000D02*
X145007064Y-126265000D01*
X144552936Y-127735000D02*
X145007064Y-127735000D01*
%TO.C,R18*%
X127227064Y-122655000D02*
X126772936Y-122655000D01*
X127227064Y-121185000D02*
X126772936Y-121185000D01*
%TO.C,R17*%
X145060936Y-98325000D02*
X145515064Y-98325000D01*
X145060936Y-99795000D02*
X145515064Y-99795000D01*
%TO.C,R16*%
X144552936Y-121185000D02*
X145007064Y-121185000D01*
X144552936Y-122655000D02*
X145007064Y-122655000D01*
%TO.C,R15*%
X144552936Y-123725000D02*
X145007064Y-123725000D01*
X144552936Y-125195000D02*
X145007064Y-125195000D01*
%TO.C,R14*%
X127227064Y-120115000D02*
X126772936Y-120115000D01*
X127227064Y-118645000D02*
X126772936Y-118645000D01*
%TO.C,R13*%
X127227064Y-74395000D02*
X126772936Y-74395000D01*
X127227064Y-72925000D02*
X126772936Y-72925000D01*
%TO.C,R12*%
X127227064Y-87095000D02*
X126772936Y-87095000D01*
X127227064Y-85625000D02*
X126772936Y-85625000D01*
%TO.C,R11*%
X127227064Y-71855000D02*
X126772936Y-71855000D01*
X127227064Y-70385000D02*
X126772936Y-70385000D01*
%TO.C,R10*%
X127227064Y-69315000D02*
X126772936Y-69315000D01*
X127227064Y-67845000D02*
X126772936Y-67845000D01*
%TO.C,R9*%
X127227064Y-66775000D02*
X126772936Y-66775000D01*
X127227064Y-65305000D02*
X126772936Y-65305000D01*
%TO.C,R8*%
X127227064Y-52605000D02*
X126772936Y-52605000D01*
X127227064Y-54075000D02*
X126772936Y-54075000D01*
%TO.C,R7*%
X127227064Y-84555000D02*
X126772936Y-84555000D01*
X127227064Y-83085000D02*
X126772936Y-83085000D01*
%TO.C,R6*%
X127227064Y-82015000D02*
X126772936Y-82015000D01*
X127227064Y-80545000D02*
X126772936Y-80545000D01*
%TO.C,R5*%
X127227064Y-78005000D02*
X126772936Y-78005000D01*
X127227064Y-79475000D02*
X126772936Y-79475000D01*
%TO.C,R4*%
X127227064Y-76935000D02*
X126772936Y-76935000D01*
X127227064Y-75465000D02*
X126772936Y-75465000D01*
%TD*%
%LPC*%
D13*
%TO.C,D4*%
X127508000Y-89290000D03*
X127508000Y-93590000D03*
%TD*%
D14*
%TO.C,R19*%
X145780000Y-127000000D03*
X143780000Y-127000000D03*
%TD*%
D15*
%TO.C,R18*%
X126000000Y-121920000D03*
X128000000Y-121920000D03*
%TD*%
D14*
%TO.C,R17*%
X146288000Y-99060000D03*
X144288000Y-99060000D03*
%TD*%
%TO.C,R16*%
X145780000Y-121920000D03*
X143780000Y-121920000D03*
%TD*%
%TO.C,R15*%
X145780000Y-124460000D03*
X143780000Y-124460000D03*
%TD*%
D15*
%TO.C,R14*%
X126000000Y-119380000D03*
X128000000Y-119380000D03*
%TD*%
%TO.C,R13*%
X126000000Y-73660000D03*
X128000000Y-73660000D03*
%TD*%
%TO.C,R12*%
X126000000Y-86360000D03*
X128000000Y-86360000D03*
%TD*%
%TO.C,R11*%
X126000000Y-71120000D03*
X128000000Y-71120000D03*
%TD*%
%TO.C,R10*%
X126000000Y-68580000D03*
X128000000Y-68580000D03*
%TD*%
%TO.C,R9*%
X126000000Y-66040000D03*
X128000000Y-66040000D03*
%TD*%
%TO.C,R8*%
X128000000Y-53340000D03*
X126000000Y-53340000D03*
%TD*%
%TO.C,R7*%
X126000000Y-83820000D03*
X128000000Y-83820000D03*
%TD*%
%TO.C,R6*%
X126000000Y-81280000D03*
X128000000Y-81280000D03*
%TD*%
%TO.C,R5*%
X128000000Y-78740000D03*
X126000000Y-78740000D03*
%TD*%
%TO.C,R4*%
X126000000Y-76200000D03*
X128000000Y-76200000D03*
%TD*%
D16*
%TO.C,J1*%
X119380000Y-127000000D03*
X119380000Y-124460000D03*
X119380000Y-121920000D03*
X119380000Y-119380000D03*
X119380000Y-116840000D03*
X119380000Y-114300000D03*
X119380000Y-111760000D03*
X119380000Y-109220000D03*
X119380000Y-106680000D03*
X119380000Y-104140000D03*
X119380000Y-101600000D03*
X119380000Y-99060000D03*
X119380000Y-96520000D03*
X119380000Y-93980000D03*
X119380000Y-91440000D03*
X119380000Y-88900000D03*
X119380000Y-86360000D03*
X119380000Y-83820000D03*
X119380000Y-81280000D03*
X119380000Y-78740000D03*
X119380000Y-76200000D03*
X119380000Y-73660000D03*
X119380000Y-71120000D03*
X119380000Y-68580000D03*
X119380000Y-66040000D03*
X119380000Y-63500000D03*
X119380000Y-60960000D03*
X119380000Y-58420000D03*
X119380000Y-55880000D03*
X119380000Y-53340000D03*
%TD*%
%TO.C,J2*%
X152400000Y-127000000D03*
X152400000Y-124460000D03*
X152400000Y-121920000D03*
X152400000Y-119380000D03*
X152400000Y-116840000D03*
X152400000Y-114300000D03*
X152400000Y-111760000D03*
X152400000Y-109220000D03*
X152400000Y-106680000D03*
X152400000Y-104140000D03*
X152400000Y-101600000D03*
X152400000Y-99060000D03*
X152400000Y-96520000D03*
X152400000Y-93980000D03*
X152400000Y-91440000D03*
X152400000Y-88900000D03*
X152400000Y-86360000D03*
X152400000Y-83820000D03*
X152400000Y-81280000D03*
X152400000Y-78740000D03*
X152400000Y-76200000D03*
X152400000Y-73660000D03*
X152400000Y-71120000D03*
X152400000Y-68580000D03*
X152400000Y-66040000D03*
X152400000Y-63500000D03*
X152400000Y-60960000D03*
X152400000Y-58420000D03*
X152400000Y-55880000D03*
X152400000Y-53340000D03*
%TD*%
D17*
%TO.C,J4*%
X149860000Y-127000000D03*
X149860000Y-124460000D03*
X149860000Y-121920000D03*
X149860000Y-119380000D03*
X149860000Y-116840000D03*
X149860000Y-114300000D03*
X149860000Y-111760000D03*
X149860000Y-109220000D03*
X149860000Y-106680000D03*
X149860000Y-104140000D03*
X149860000Y-101600000D03*
X149860000Y-99060000D03*
X149860000Y-96520000D03*
X149860000Y-93980000D03*
X149860000Y-91440000D03*
X149860000Y-88900000D03*
X149860000Y-86360000D03*
X149860000Y-83820000D03*
X149860000Y-81280000D03*
X149860000Y-78740000D03*
X149860000Y-76200000D03*
X149860000Y-73660000D03*
X149860000Y-71120000D03*
X149860000Y-68580000D03*
X149860000Y-66040000D03*
X149860000Y-63500000D03*
X149860000Y-60960000D03*
X149860000Y-58420000D03*
X149860000Y-55880000D03*
X149860000Y-53340000D03*
%TD*%
%TO.C,J3*%
X121920000Y-127000000D03*
X121920000Y-124460000D03*
X121920000Y-121920000D03*
X121920000Y-119380000D03*
X121920000Y-116840000D03*
X121920000Y-114300000D03*
X121920000Y-111760000D03*
X121920000Y-109220000D03*
X121920000Y-106680000D03*
X121920000Y-104140000D03*
X121920000Y-101600000D03*
X121920000Y-99060000D03*
X121920000Y-96520000D03*
X121920000Y-93980000D03*
X121920000Y-91440000D03*
X121920000Y-88900000D03*
X121920000Y-86360000D03*
X121920000Y-83820000D03*
X121920000Y-81280000D03*
X121920000Y-78740000D03*
X121920000Y-76200000D03*
X121920000Y-73660000D03*
X121920000Y-71120000D03*
X121920000Y-68580000D03*
X121920000Y-66040000D03*
X121920000Y-63500000D03*
X121920000Y-60960000D03*
X121920000Y-58420000D03*
X121920000Y-55880000D03*
X121920000Y-53340000D03*
%TD*%
%LPD*%
M02*
