%TF.GenerationSoftware,KiCad,Pcbnew,8.0.4*%
%TF.CreationDate,2024-08-07T10:54:24+02:00*%
%TF.ProjectId,DCJ11_Carrier,44434a31-315f-4436-9172-726965722e6b,rev?*%
%TF.SameCoordinates,Original*%
%TF.FileFunction,Copper,L1,Top*%
%TF.FilePolarity,Positive*%
%FSLAX46Y46*%
G04 Gerber Fmt 4.6, Leading zero omitted, Abs format (unit mm)*
G04 Created by KiCad (PCBNEW 8.0.4) date 2024-08-07 10:54:24*
%MOMM*%
%LPD*%
G01*
G04 APERTURE LIST*
G04 Aperture macros list*
%AMRoundRect*
0 Rectangle with rounded corners*
0 $1 Rounding radius*
0 $2 $3 $4 $5 $6 $7 $8 $9 X,Y pos of 4 corners*
0 Add a 4 corners polygon primitive as box body*
4,1,4,$2,$3,$4,$5,$6,$7,$8,$9,$2,$3,0*
0 Add four circle primitives for the rounded corners*
1,1,$1+$1,$2,$3*
1,1,$1+$1,$4,$5*
1,1,$1+$1,$6,$7*
1,1,$1+$1,$8,$9*
0 Add four rect primitives between the rounded corners*
20,1,$1+$1,$2,$3,$4,$5,0*
20,1,$1+$1,$4,$5,$6,$7,0*
20,1,$1+$1,$6,$7,$8,$9,0*
20,1,$1+$1,$8,$9,$2,$3,0*%
G04 Aperture macros list end*
%TA.AperFunction,SMDPad,CuDef*%
%ADD10RoundRect,0.250000X-0.475000X0.337500X-0.475000X-0.337500X0.475000X-0.337500X0.475000X0.337500X0*%
%TD*%
%TA.AperFunction,SMDPad,CuDef*%
%ADD11RoundRect,0.250000X0.475000X-0.337500X0.475000X0.337500X-0.475000X0.337500X-0.475000X-0.337500X0*%
%TD*%
%TA.AperFunction,SMDPad,CuDef*%
%ADD12RoundRect,0.250000X-0.350000X-0.450000X0.350000X-0.450000X0.350000X0.450000X-0.350000X0.450000X0*%
%TD*%
%TA.AperFunction,SMDPad,CuDef*%
%ADD13RoundRect,0.250000X-0.325000X-0.450000X0.325000X-0.450000X0.325000X0.450000X-0.325000X0.450000X0*%
%TD*%
%TA.AperFunction,ComponentPad*%
%ADD14R,1.700000X1.700000*%
%TD*%
%TA.AperFunction,ComponentPad*%
%ADD15R,2.200000X1.800000*%
%TD*%
%TA.AperFunction,ViaPad*%
%ADD16C,0.600000*%
%TD*%
%TA.AperFunction,Conductor*%
%ADD17C,0.200000*%
%TD*%
%TA.AperFunction,Conductor*%
%ADD18C,0.500000*%
%TD*%
%TA.AperFunction,Conductor*%
%ADD19C,2.000000*%
%TD*%
G04 APERTURE END LIST*
D10*
%TO.P,C2,1*%
%TO.N,VCC*%
X146685000Y-89132500D03*
%TO.P,C2,2*%
%TO.N,GND*%
X146685000Y-91207500D03*
%TD*%
D11*
%TO.P,C1,1*%
%TO.N,VCC*%
X125095000Y-91207500D03*
%TO.P,C1,2*%
%TO.N,GND*%
X125095000Y-89132500D03*
%TD*%
D12*
%TO.P,R3,2*%
%TO.N,VCC*%
X139340000Y-119380000D03*
%TO.P,R3,1*%
%TO.N,Net-(D3-A)*%
X137340000Y-119380000D03*
%TD*%
%TO.P,R2,2*%
%TO.N,VCC*%
X139340000Y-90170000D03*
%TO.P,R2,1*%
%TO.N,Net-(D2-A)*%
X137340000Y-90170000D03*
%TD*%
%TO.P,R1,1*%
%TO.N,Net-(D1-A)*%
X137430000Y-61595000D03*
%TO.P,R1,2*%
%TO.N,VCC*%
X139430000Y-61595000D03*
%TD*%
D13*
%TO.P,D3,2,A*%
%TO.N,Net-(D3-A)*%
X134620000Y-119380000D03*
%TO.P,D3,1,K*%
%TO.N,GND*%
X132570000Y-119380000D03*
%TD*%
%TO.P,D2,2,A*%
%TO.N,Net-(D2-A)*%
X134620000Y-90170000D03*
%TO.P,D2,1,K*%
%TO.N,GND*%
X132570000Y-90170000D03*
%TD*%
%TO.P,D1,1,K*%
%TO.N,GND*%
X132325000Y-61595000D03*
%TO.P,D1,2,A*%
%TO.N,Net-(D1-A)*%
X134375000Y-61595000D03*
%TD*%
D14*
%TO.P,J1,30,Pin_30*%
%TO.N,Net-(J1-Pin_30)*%
X119380000Y-127000000D03*
%TO.P,J1,29,Pin_29*%
%TO.N,Net-(J1-Pin_29)*%
X119380000Y-124460000D03*
%TO.P,J1,28,Pin_28*%
%TO.N,Net-(J1-Pin_28)*%
X119380000Y-121920000D03*
%TO.P,J1,27,Pin_27*%
%TO.N,Net-(J1-Pin_27)*%
X119380000Y-119380000D03*
%TO.P,J1,26,Pin_26*%
%TO.N,Net-(J1-Pin_26)*%
X119380000Y-116840000D03*
%TO.P,J1,25,Pin_25*%
%TO.N,Net-(J1-Pin_25)*%
X119380000Y-114300000D03*
%TO.P,J1,24,Pin_24*%
%TO.N,Net-(J1-Pin_24)*%
X119380000Y-111760000D03*
%TO.P,J1,23,Pin_23*%
%TO.N,Net-(J1-Pin_23)*%
X119380000Y-109220000D03*
%TO.P,J1,22,Pin_22*%
%TO.N,Net-(J1-Pin_22)*%
X119380000Y-106680000D03*
%TO.P,J1,21,Pin_21*%
%TO.N,Net-(J1-Pin_21)*%
X119380000Y-104140000D03*
%TO.P,J1,20,Pin_20*%
%TO.N,Net-(J1-Pin_20)*%
X119380000Y-101600000D03*
%TO.P,J1,19,Pin_19*%
%TO.N,Net-(J1-Pin_19)*%
X119380000Y-99060000D03*
%TO.P,J1,18,Pin_18*%
%TO.N,Net-(J1-Pin_18)*%
X119380000Y-96520000D03*
%TO.P,J1,17,Pin_17*%
%TO.N,Net-(J1-Pin_17)*%
X119380000Y-93980000D03*
%TO.P,J1,16,Pin_16*%
%TO.N,VCC*%
X119380000Y-91440000D03*
%TO.P,J1,15,Pin_15*%
%TO.N,GND*%
X119380000Y-88900000D03*
%TO.P,J1,14,Pin_14*%
%TO.N,Net-(J1-Pin_14)*%
X119380000Y-86360000D03*
%TO.P,J1,13,Pin_13*%
%TO.N,Net-(J1-Pin_13)*%
X119380000Y-83820000D03*
%TO.P,J1,12,Pin_12*%
%TO.N,Net-(J1-Pin_12)*%
X119380000Y-81280000D03*
%TO.P,J1,11,Pin_11*%
%TO.N,Net-(J1-Pin_11)*%
X119380000Y-78740000D03*
%TO.P,J1,10,Pin_10*%
%TO.N,Net-(J1-Pin_10)*%
X119380000Y-76200000D03*
%TO.P,J1,9,Pin_9*%
%TO.N,Net-(J1-Pin_9)*%
X119380000Y-73660000D03*
%TO.P,J1,8,Pin_8*%
%TO.N,Net-(J1-Pin_8)*%
X119380000Y-71120000D03*
%TO.P,J1,7,Pin_7*%
%TO.N,Net-(J1-Pin_7)*%
X119380000Y-68580000D03*
%TO.P,J1,6,Pin_6*%
%TO.N,Net-(J1-Pin_6)*%
X119380000Y-66040000D03*
%TO.P,J1,5,Pin_5*%
%TO.N,Net-(J1-Pin_5)*%
X119380000Y-63500000D03*
%TO.P,J1,4,Pin_4*%
%TO.N,Net-(J1-Pin_4)*%
X119380000Y-60960000D03*
%TO.P,J1,3,Pin_3*%
%TO.N,Net-(J1-Pin_3)*%
X119380000Y-58420000D03*
%TO.P,J1,2,Pin_2*%
%TO.N,Net-(J1-Pin_2)*%
X119380000Y-55880000D03*
%TO.P,J1,1,Pin_1*%
%TO.N,Net-(J1-Pin_1)*%
X119380000Y-53340000D03*
%TD*%
%TO.P,J2,30,Pin_30*%
%TO.N,Net-(J2-Pin_30)*%
X152400000Y-127000000D03*
%TO.P,J2,29,Pin_29*%
%TO.N,Net-(J2-Pin_29)*%
X152400000Y-124460000D03*
%TO.P,J2,28,Pin_28*%
%TO.N,Net-(J2-Pin_28)*%
X152400000Y-121920000D03*
%TO.P,J2,27,Pin_27*%
%TO.N,Net-(J2-Pin_27)*%
X152400000Y-119380000D03*
%TO.P,J2,26,Pin_26*%
%TO.N,Net-(J2-Pin_26)*%
X152400000Y-116840000D03*
%TO.P,J2,25,Pin_25*%
%TO.N,Net-(J2-Pin_25)*%
X152400000Y-114300000D03*
%TO.P,J2,24,Pin_24*%
%TO.N,Net-(J2-Pin_24)*%
X152400000Y-111760000D03*
%TO.P,J2,23,Pin_23*%
%TO.N,Net-(J2-Pin_23)*%
X152400000Y-109220000D03*
%TO.P,J2,22,Pin_22*%
%TO.N,Net-(J2-Pin_22)*%
X152400000Y-106680000D03*
%TO.P,J2,21,Pin_21*%
%TO.N,Net-(J2-Pin_21)*%
X152400000Y-104140000D03*
%TO.P,J2,20,Pin_20*%
%TO.N,Net-(J2-Pin_20)*%
X152400000Y-101600000D03*
%TO.P,J2,19,Pin_19*%
%TO.N,Net-(J2-Pin_19)*%
X152400000Y-99060000D03*
%TO.P,J2,18,Pin_18*%
%TO.N,Net-(J2-Pin_18)*%
X152400000Y-96520000D03*
%TO.P,J2,17,Pin_17*%
%TO.N,Net-(J2-Pin_17)*%
X152400000Y-93980000D03*
%TO.P,J2,16,Pin_16*%
%TO.N,GND*%
X152400000Y-91440000D03*
%TO.P,J2,15,Pin_15*%
%TO.N,VCC*%
X152400000Y-88900000D03*
%TO.P,J2,14,Pin_14*%
%TO.N,Net-(J2-Pin_14)*%
X152400000Y-86360000D03*
%TO.P,J2,13,Pin_13*%
%TO.N,Net-(J2-Pin_13)*%
X152400000Y-83820000D03*
%TO.P,J2,12,Pin_12*%
%TO.N,Net-(J2-Pin_12)*%
X152400000Y-81280000D03*
%TO.P,J2,11,Pin_11*%
%TO.N,Net-(J2-Pin_11)*%
X152400000Y-78740000D03*
%TO.P,J2,10,Pin_10*%
%TO.N,Net-(J2-Pin_10)*%
X152400000Y-76200000D03*
%TO.P,J2,9,Pin_9*%
%TO.N,Net-(J2-Pin_9)*%
X152400000Y-73660000D03*
%TO.P,J2,8,Pin_8*%
%TO.N,Net-(J2-Pin_8)*%
X152400000Y-71120000D03*
%TO.P,J2,7,Pin_7*%
%TO.N,Net-(J2-Pin_7)*%
X152400000Y-68580000D03*
%TO.P,J2,6,Pin_6*%
%TO.N,Net-(J2-Pin_6)*%
X152400000Y-66040000D03*
%TO.P,J2,5,Pin_5*%
%TO.N,Net-(J2-Pin_5)*%
X152400000Y-63500000D03*
%TO.P,J2,4,Pin_4*%
%TO.N,Net-(J2-Pin_4)*%
X152400000Y-60960000D03*
%TO.P,J2,3,Pin_3*%
%TO.N,Net-(J2-Pin_3)*%
X152400000Y-58420000D03*
%TO.P,J2,2,Pin_2*%
%TO.N,Net-(J2-Pin_2)*%
X152400000Y-55880000D03*
%TO.P,J2,1,Pin_1*%
%TO.N,Net-(J2-Pin_1)*%
X152400000Y-53340000D03*
%TD*%
D15*
%TO.P,J4,30,Pin_30*%
%TO.N,Net-(J2-Pin_30)*%
X149860000Y-127000000D03*
%TO.P,J4,29,Pin_29*%
%TO.N,Net-(J2-Pin_29)*%
X149860000Y-124460000D03*
%TO.P,J4,28,Pin_28*%
%TO.N,Net-(J2-Pin_28)*%
X149860000Y-121920000D03*
%TO.P,J4,27,Pin_27*%
%TO.N,Net-(J2-Pin_27)*%
X149860000Y-119380000D03*
%TO.P,J4,26,Pin_26*%
%TO.N,Net-(J2-Pin_26)*%
X149860000Y-116840000D03*
%TO.P,J4,25,Pin_25*%
%TO.N,Net-(J2-Pin_25)*%
X149860000Y-114300000D03*
%TO.P,J4,24,Pin_24*%
%TO.N,Net-(J2-Pin_24)*%
X149860000Y-111760000D03*
%TO.P,J4,23,Pin_23*%
%TO.N,Net-(J2-Pin_23)*%
X149860000Y-109220000D03*
%TO.P,J4,22,Pin_22*%
%TO.N,Net-(J2-Pin_22)*%
X149860000Y-106680000D03*
%TO.P,J4,21,Pin_21*%
%TO.N,Net-(J2-Pin_21)*%
X149860000Y-104140000D03*
%TO.P,J4,20,Pin_20*%
%TO.N,Net-(J2-Pin_20)*%
X149860000Y-101600000D03*
%TO.P,J4,19,Pin_19*%
%TO.N,Net-(J2-Pin_19)*%
X149860000Y-99060000D03*
%TO.P,J4,18,Pin_18*%
%TO.N,Net-(J2-Pin_18)*%
X149860000Y-96520000D03*
%TO.P,J4,17,Pin_17*%
%TO.N,Net-(J2-Pin_17)*%
X149860000Y-93980000D03*
%TO.P,J4,16,Pin_16*%
%TO.N,GND*%
X149860000Y-91440000D03*
%TO.P,J4,15,Pin_15*%
%TO.N,VCC*%
X149860000Y-88900000D03*
%TO.P,J4,14,Pin_14*%
%TO.N,Net-(J2-Pin_14)*%
X149860000Y-86360000D03*
%TO.P,J4,13,Pin_13*%
%TO.N,Net-(J2-Pin_13)*%
X149860000Y-83820000D03*
%TO.P,J4,12,Pin_12*%
%TO.N,Net-(J2-Pin_12)*%
X149860000Y-81280000D03*
%TO.P,J4,11,Pin_11*%
%TO.N,Net-(J2-Pin_11)*%
X149860000Y-78740000D03*
%TO.P,J4,10,Pin_10*%
%TO.N,Net-(J2-Pin_10)*%
X149860000Y-76200000D03*
%TO.P,J4,9,Pin_9*%
%TO.N,Net-(J2-Pin_9)*%
X149860000Y-73660000D03*
%TO.P,J4,8,Pin_8*%
%TO.N,Net-(J2-Pin_8)*%
X149860000Y-71120000D03*
%TO.P,J4,7,Pin_7*%
%TO.N,Net-(J2-Pin_7)*%
X149860000Y-68580000D03*
%TO.P,J4,6,Pin_6*%
%TO.N,Net-(J2-Pin_6)*%
X149860000Y-66040000D03*
%TO.P,J4,5,Pin_5*%
%TO.N,Net-(J2-Pin_5)*%
X149860000Y-63500000D03*
%TO.P,J4,4,Pin_4*%
%TO.N,Net-(J2-Pin_4)*%
X149860000Y-60960000D03*
%TO.P,J4,3,Pin_3*%
%TO.N,Net-(J2-Pin_3)*%
X149860000Y-58420000D03*
%TO.P,J4,2,Pin_2*%
%TO.N,Net-(J2-Pin_2)*%
X149860000Y-55880000D03*
%TO.P,J4,1,Pin_1*%
%TO.N,Net-(J2-Pin_1)*%
X149860000Y-53340000D03*
%TD*%
%TO.P,J3,30,Pin_30*%
%TO.N,Net-(J1-Pin_30)*%
X121920000Y-127000000D03*
%TO.P,J3,29,Pin_29*%
%TO.N,Net-(J1-Pin_29)*%
X121920000Y-124460000D03*
%TO.P,J3,28,Pin_28*%
%TO.N,Net-(J1-Pin_28)*%
X121920000Y-121920000D03*
%TO.P,J3,27,Pin_27*%
%TO.N,Net-(J1-Pin_27)*%
X121920000Y-119380000D03*
%TO.P,J3,26,Pin_26*%
%TO.N,Net-(J1-Pin_26)*%
X121920000Y-116840000D03*
%TO.P,J3,25,Pin_25*%
%TO.N,Net-(J1-Pin_25)*%
X121920000Y-114300000D03*
%TO.P,J3,24,Pin_24*%
%TO.N,Net-(J1-Pin_24)*%
X121920000Y-111760000D03*
%TO.P,J3,23,Pin_23*%
%TO.N,Net-(J1-Pin_23)*%
X121920000Y-109220000D03*
%TO.P,J3,22,Pin_22*%
%TO.N,Net-(J1-Pin_22)*%
X121920000Y-106680000D03*
%TO.P,J3,21,Pin_21*%
%TO.N,Net-(J1-Pin_21)*%
X121920000Y-104140000D03*
%TO.P,J3,20,Pin_20*%
%TO.N,Net-(J1-Pin_20)*%
X121920000Y-101600000D03*
%TO.P,J3,19,Pin_19*%
%TO.N,Net-(J1-Pin_19)*%
X121920000Y-99060000D03*
%TO.P,J3,18,Pin_18*%
%TO.N,Net-(J1-Pin_18)*%
X121920000Y-96520000D03*
%TO.P,J3,17,Pin_17*%
%TO.N,Net-(J1-Pin_17)*%
X121920000Y-93980000D03*
%TO.P,J3,16,Pin_16*%
%TO.N,VCC*%
X121920000Y-91440000D03*
%TO.P,J3,15,Pin_15*%
%TO.N,GND*%
X121920000Y-88900000D03*
%TO.P,J3,14,Pin_14*%
%TO.N,Net-(J1-Pin_14)*%
X121920000Y-86360000D03*
%TO.P,J3,13,Pin_13*%
%TO.N,Net-(J1-Pin_13)*%
X121920000Y-83820000D03*
%TO.P,J3,12,Pin_12*%
%TO.N,Net-(J1-Pin_12)*%
X121920000Y-81280000D03*
%TO.P,J3,11,Pin_11*%
%TO.N,Net-(J1-Pin_11)*%
X121920000Y-78740000D03*
%TO.P,J3,10,Pin_10*%
%TO.N,Net-(J1-Pin_10)*%
X121920000Y-76200000D03*
%TO.P,J3,9,Pin_9*%
%TO.N,Net-(J1-Pin_9)*%
X121920000Y-73660000D03*
%TO.P,J3,8,Pin_8*%
%TO.N,Net-(J1-Pin_8)*%
X121920000Y-71120000D03*
%TO.P,J3,7,Pin_7*%
%TO.N,Net-(J1-Pin_7)*%
X121920000Y-68580000D03*
%TO.P,J3,6,Pin_6*%
%TO.N,Net-(J1-Pin_6)*%
X121920000Y-66040000D03*
%TO.P,J3,5,Pin_5*%
%TO.N,Net-(J1-Pin_5)*%
X121920000Y-63500000D03*
%TO.P,J3,4,Pin_4*%
%TO.N,Net-(J1-Pin_4)*%
X121920000Y-60960000D03*
%TO.P,J3,3,Pin_3*%
%TO.N,Net-(J1-Pin_3)*%
X121920000Y-58420000D03*
%TO.P,J3,2,Pin_2*%
%TO.N,Net-(J1-Pin_2)*%
X121920000Y-55880000D03*
%TO.P,J3,1,Pin_1*%
%TO.N,Net-(J1-Pin_1)*%
X121920000Y-53340000D03*
%TD*%
D16*
%TO.N,GND*%
X132325000Y-83575000D03*
%TO.N,VCC*%
X139340000Y-116500000D03*
%TO.N,GND*%
X130810000Y-94615000D03*
%TO.N,VCC*%
X140970000Y-90170000D03*
%TO.N,GND*%
X130810000Y-90170000D03*
%TD*%
D17*
%TO.N,VCC*%
X139340000Y-119380000D02*
X139340000Y-116500000D01*
X139340000Y-116500000D02*
X139340000Y-92985000D01*
D18*
%TO.N,GND*%
X146685000Y-91207500D02*
X149627500Y-91207500D01*
D17*
X149627500Y-91207500D02*
X149860000Y-91440000D01*
%TO.N,VCC*%
X140970000Y-90170000D02*
X141605000Y-90170000D01*
X141605000Y-90170000D02*
X142875000Y-88900000D01*
X142875000Y-88900000D02*
X146685000Y-88900000D01*
D19*
X139065000Y-92710000D02*
X141605000Y-92710000D01*
X141605000Y-92710000D02*
X145415000Y-88900000D01*
X145415000Y-88900000D02*
X146685000Y-88900000D01*
D18*
%TO.N,GND*%
X125095000Y-89132500D02*
X122152500Y-89132500D01*
D17*
X122152500Y-89132500D02*
X121920000Y-88900000D01*
X130810000Y-90170000D02*
X129540000Y-90170000D01*
X129540000Y-90170000D02*
X128502500Y-89132500D01*
X128502500Y-89132500D02*
X125095000Y-89132500D01*
%TO.N,VCC*%
X139430000Y-82915000D02*
X140970000Y-84455000D01*
X139430000Y-61595000D02*
X139430000Y-82915000D01*
X140970000Y-84455000D02*
X140970000Y-90170000D01*
%TO.N,GND*%
X132325000Y-83575000D02*
X130810000Y-85090000D01*
X132325000Y-61595000D02*
X132325000Y-83575000D01*
X130810000Y-85090000D02*
X130810000Y-90170000D01*
X132570000Y-96375000D02*
X130810000Y-94615000D01*
X132570000Y-119380000D02*
X132570000Y-96375000D01*
D19*
%TO.N,VCC*%
X128905000Y-92710000D02*
X139065000Y-92710000D01*
D17*
X139340000Y-92985000D02*
X139065000Y-92710000D01*
X139340000Y-90170000D02*
X140970000Y-90170000D01*
%TO.N,GND*%
X132570000Y-90170000D02*
X130810000Y-90170000D01*
D19*
%TO.N,VCC*%
X121920000Y-91440000D02*
X127635000Y-91440000D01*
X127635000Y-91440000D02*
X128905000Y-92710000D01*
X146685000Y-88900000D02*
X149860000Y-88900000D01*
D17*
%TO.N,Net-(D1-A)*%
X134375000Y-61595000D02*
X137430000Y-61595000D01*
%TO.N,Net-(D2-A)*%
X134620000Y-90170000D02*
X137340000Y-90170000D01*
%TO.N,Net-(D3-A)*%
X134620000Y-119380000D02*
X137340000Y-119380000D01*
%TD*%
M02*
